<svg width="1034" height="240" version="1.1" xmlns="http://www.w3.org/2000/svg" desc="Created with imagetracer.js version 1.2.6" ><path fill="rgb(39,39,39)" stroke="rgb(39,39,39)" stroke-width="1" opacity="1" d="M 268.5 66 L 294.5 66 L 295.5 67 L 308.5 67 L 309.5 68 L 318.5 68 L 319.5 69 L 338.5 71 L 357.5 76 L 370.5 81 L 405.5 99 L 426.5 107 L 434.5 109 L 454.5 109 L 455.5 108 L 481.5 108 L 500.5 112 L 512.5 117 L 517.5 117 L 533.5 111 L 547.5 108 L 575.5 108 L 576.5 109 L 595.5 109 L 617.5 102 L 656.5 82 L 675.5 75 L 712.5 68 L 735.5 67 L 736.5 66 L 761 66 Q 762.1 68.7 759.5 68 L 737.5 75 L 675.5 108 L 651.5 115 L 638.5 116 L 637.5 117 L 622 117.5 L 647.5 123 L 680.5 123 L 681.5 122 L 697.5 121 L 710.5 117 Q 743.5 101 772.5 81 L 796.5 71 L 813.5 68 L 822.5 68 L 823.5 67 L 859 67 L 860 69.5 Q 828.4 81.4 800.5 97 L 777 104.5 L 780.5 105 L 781.5 104 L 792.5 104 L 793.5 103 L 825.5 102 Q 843.9 96.4 859.5 88 L 876.5 83 L 922.5 82 L 923.5 83 L 945 83 L 943.5 86 L 898 102.5 L 902.5 103 L 911.5 101 L 933.5 101 L 955.5 106 L 982.5 118 L 995 125.5 L 994.5 127 L 977.5 127 L 976.5 126 L 946.5 126 L 945.5 125 L 935.5 125 L 890.5 110 L 881.5 108 L 874.5 108 L 874.5 109 Q 897.8 113.2 915.5 123 L 952 148.5 L 950.5 151 Q 922 144.5 896.5 135 Q 879.9 128.1 866.5 118 L 841.5 107 L 794.5 107 L 794.5 108 L 807.5 109 L 832.5 115 L 891.5 137 L 908 145.5 L 907.5 147 L 888.5 147 L 887.5 146 L 853.5 145 L 852.5 144 L 843.5 144 L 832.5 142 L 812.5 136 L 767.5 116 L 759.5 114 L 747.5 114 L 688.5 127 L 662 128 Q 660.6 131.7 666.5 130 L 692.5 136 L 719.5 147 Q 752.5 166.5 780 191.5 L 778.5 194 L 775.5 194 L 756.5 187 L 711.5 177 L 692.5 170 L 676.5 161 L 641.5 136 L 616.5 123 L 595.5 117 L 585.5 115 L 578.5 115 L 577.5 114 L 541.5 114 L 529.5 117 L 522 120.5 L 540 131.5 Q 541.3 135.3 537.5 134 L 513.5 123 L 490.5 134 L 489 132.5 L 492.5 129 L 508 120.5 L 487.5 114 L 450.5 114 L 424.5 119 L 409.5 124 L 387.5 136 L 352.5 161 L 326.5 174 L 309.5 179 L 279.5 185 L 250 194 Q 249 190.2 251.5 189 Q 278 166.5 308.5 148 L 334.5 137 L 369 129.5 L 365.5 128 L 347.5 128 L 346.5 127 L 328.5 125 L 274.5 113 L 252.5 119 L 221.5 134 L 196.5 142 L 185.5 143 L 184.5 144 L 176.5 144 L 175.5 145 L 122.5 147 L 121.5 145 L 158.5 129 L 197.5 115 L 222.5 109 L 236 107.5 L 187.5 107 L 178.5 110 L 150.5 126 L 129.5 136 L 94.5 147 L 77 150 L 78.5 147 L 118.5 121 Q 135.2 112.7 156 108.5 L 146.5 108 L 97.5 124 L 82.5 125 L 81.5 126 L 51.5 126 L 50.5 127 L 35 127 L 36.5 124 Q 57 112.5 80.5 104 L 95.5 101 L 117.5 101 L 118.5 102 L 130.5 103 L 130.5 102 L 87.5 87 L 84 84.5 L 85.5 83 L 104.5 83 L 105.5 82 L 139.5 82 L 140.5 83 L 151.5 83 L 164.5 86 L 205.5 102 L 248.5 104 L 248.5 103 L 228.5 97 L 170 69.5 L 171.5 67 L 206.5 67 L 207.5 68 L 228.5 70 L 240.5 73 L 262.5 84 L 299.5 107 L 324.5 119 L 339.5 122 L 348.5 122 L 349.5 123 L 382.5 123 L 407 117.5 L 382.5 116 L 358.5 110 L 340.5 102 L 293.5 76 L 279.5 71 L 272.5 70 L 268.5 66 Z M 183 70 L 183 71 L 232 94 L 281 108 L 284 108 L 235 86 L 225 83 L 224 81 L 231 82 L 251 89 L 287 105 L 288 105 L 257 85 L 234 75 L 211 71 L 183 70 Z M 292 70 L 292 71 L 310 79 L 348 100 L 370 108 L 390 112 L 416 112 L 380 102 L 340 86 L 340 85 L 343 85 L 391 102 L 416 109 L 420 109 L 401 101 L 365 83 L 351 78 L 322 72 L 305 71 L 304 70 L 292 70 Z M 726 70 L 725 71 L 701 73 L 675 79 L 622 104 L 610 108 L 610 109 L 615 109 L 640 102 L 688 85 L 690 86 L 655 100 L 634 107 L 615 111 L 615 112 L 648 111 L 668 106 L 687 98 L 719 80 L 739 71 L 726 70 Z M 830 70 L 829 71 L 818 71 L 817 72 L 805 73 L 789 77 L 776 83 L 743 103 L 742 105 L 780 89 L 804 81 L 806 82 L 743 108 L 743 109 L 770 103 L 796 95 L 847 71 L 830 70 Z M 920 85 L 919 86 L 879 86 Q 860 89 846 97 L 846 98 L 867 95 L 894 89 L 898 90 L 870 97 L 837 103 L 853 103 L 854 104 L 873 104 L 874 103 L 886 102 L 919 92 L 933 86 L 920 85 Z M 99 86 L 101 88 L 133 99 L 158 104 L 191 103 L 155 96 L 132 90 L 132 89 L 137 89 L 182 98 L 184 98 L 161 88 L 150 86 L 99 86 Z M 250 104 L 250 105 L 252 105 L 250 104 Z M 923 104 L 922 105 L 905 106 L 940 108 L 941 110 L 924 110 L 923 109 L 900 110 L 929 119 L 943 122 L 953 122 L 954 123 L 982 123 Q 965 112 944 106 L 923 104 Z M 90 105 L 79 108 L 47 122 L 47 123 L 77 123 L 78 122 L 88 122 L 106 118 L 130 110 L 130 109 L 105 109 L 104 110 L 89 110 L 98 107 L 114 107 L 115 106 L 125 106 L 90 105 Z M 285 108 L 285 109 L 287 109 L 285 108 Z M 166 111 Q 142 119 121 129 L 118 129 Q 130 121 145 116 L 145 115 L 131 119 L 115 127 L 89 144 L 89 145 L 105 141 L 133 131 L 167 112 L 166 111 Z M 233 111 L 232 112 L 218 113 L 202 117 L 132 143 L 132 144 L 154 143 L 155 142 L 170 142 L 171 141 L 180 141 L 197 138 L 221 130 L 253 115 L 262 113 L 262 112 L 247 113 L 225 118 L 190 130 L 187 130 Q 210 118 238 112 L 233 111 Z M 793 111 L 793 112 Q 819 118 841 128 L 842 130 L 801 117 L 775 112 L 768 113 L 778 115 L 805 128 L 830 137 L 852 141 L 890 143 L 891 144 L 898 144 L 834 119 L 811 113 L 793 111 Z M 865 112 L 868 115 L 896 130 L 940 145 L 941 145 L 915 127 L 893 117 L 890 118 L 905 124 L 911 129 L 911 130 L 876 115 L 865 112 Z M 888 116 L 888 117 L 890 117 L 888 116 Z M 384 128 L 370 133 L 335 141 L 320 147 L 305 155 L 262 185 L 263 187 L 280 181 L 313 174 L 328 169 L 346 160 L 383 135 L 384 133 L 349 149 L 300 168 L 298 169 L 319 157 L 348 146 L 386 129 L 384 128 Z M 650 130 L 650 131 L 658 135 L 710 156 L 728 165 L 731 169 L 683 150 L 649 134 L 647 135 L 683 159 L 701 168 L 718 174 L 754 182 L 767 187 L 768 187 L 739 164 L 710 147 L 684 138 L 650 130 Z " /><path fill="rgb(255,255,255)" stroke="rgb(255,255,255)" stroke-width="1" opacity="1" d="M 0 0 L 1033.5 0 L 1034 0.5 L 1034 240 L 0.5 240 L 0 239.5 L 0 0 Z M 269 66 L 273 70 L 280 71 L 294 76 L 341 102 L 359 110 L 383 116 L 407 118 L 383 123 L 350 123 L 349 122 L 340 122 L 325 119 L 300 107 L 263 84 L 241 73 L 229 70 L 208 68 L 207 67 L 172 67 L 170 70 L 229 97 L 252 104 L 252 105 Q 246 103 238 104 L 237 103 L 206 102 L 165 86 L 152 83 L 141 83 L 140 82 L 106 82 L 105 83 L 86 83 L 84 85 L 88 87 L 131 102 L 131 103 L 119 102 L 118 101 L 96 101 L 81 104 Q 57 112 37 124 L 35 127 L 51 127 L 52 126 L 82 126 L 83 125 L 98 124 L 147 108 L 156 109 Q 135 113 119 121 L 79 147 L 77 150 L 95 147 L 130 136 L 151 126 L 179 110 L 188 107 L 236 108 L 223 109 L 198 115 L 159 129 L 122 145 L 123 147 L 176 145 L 177 144 L 185 144 L 186 143 L 197 142 L 222 134 L 253 119 L 275 113 L 329 125 L 347 127 L 348 128 L 366 128 L 369 130 L 335 137 L 309 148 Q 278 166 252 189 Q 249 190 250 194 L 280 185 L 310 179 L 327 174 L 353 161 L 388 136 L 410 124 L 425 119 L 451 114 L 488 114 L 508 121 L 493 129 L 489 133 L 491 134 L 514 123 L 538 134 Q 541 135 540 132 L 522 121 L 530 117 L 542 114 L 578 114 L 579 115 L 586 115 L 596 117 L 617 123 L 642 136 L 677 161 L 693 170 L 712 177 L 757 187 L 776 194 L 779 194 L 780 192 Q 753 166 720 147 L 693 136 L 667 130 Q 661 132 662 128 L 689 127 L 748 114 L 760 114 L 768 116 L 813 136 L 833 142 L 844 144 L 853 144 L 854 145 L 888 146 L 889 147 L 908 147 L 908 146 L 892 137 L 833 115 L 808 109 L 795 108 L 795 107 L 842 107 L 867 118 Q 880 128 897 135 Q 922 145 951 151 L 952 149 L 916 123 Q 898 113 875 109 L 875 108 L 882 108 L 891 110 L 936 125 L 946 125 L 947 126 L 977 126 L 978 127 L 995 127 L 995 126 L 983 118 L 956 106 L 934 101 L 912 101 L 903 103 L 898 103 L 944 86 L 945 83 L 924 83 L 923 82 L 877 83 L 860 88 Q 844 96 826 102 L 794 103 L 793 104 L 782 104 L 781 105 L 777 105 L 801 97 Q 828 81 860 70 L 859 67 L 824 67 L 823 68 L 814 68 L 797 71 L 773 81 Q 744 101 711 117 L 698 121 L 682 122 L 681 123 L 648 123 L 622 118 L 638 117 L 639 116 L 652 115 L 676 108 L 738 75 L 760 68 Q 762 69 761 66 L 737 66 L 736 67 L 713 68 L 676 75 L 657 82 L 618 102 L 596 109 L 577 109 L 576 108 L 548 108 L 534 111 L 518 117 L 513 117 L 501 112 L 482 108 L 456 108 L 455 109 L 435 109 L 427 107 L 406 99 L 371 81 L 358 76 L 339 71 L 320 69 L 319 68 L 310 68 L 309 67 L 296 67 L 295 66 L 269 66 Z " /><path fill="rgb(255,255,255)" stroke="rgb(255,255,255)" stroke-width="1" opacity="1" d="M 182.5 70 L 210.5 71 L 233.5 75 L 256.5 85 L 288 104.5 L 286.5 105 L 250.5 89 L 230.5 82 L 223.5 81 L 224.5 83 L 234.5 86 L 287 108.5 L 284.5 109 L 231.5 94 L 182.5 71 L 182.5 70 Z " /><path fill="rgb(255,255,255)" stroke="rgb(255,255,255)" stroke-width="1" opacity="1" d="M 291.5 70 L 303.5 70 L 304.5 71 L 321.5 72 L 350.5 78 L 364.5 83 L 400.5 101 L 420 108.5 L 415.5 109 L 390.5 102 L 342.5 85 L 339.5 85 L 339.5 86 L 379.5 102 L 416 111.5 L 389.5 112 L 369.5 108 L 347.5 100 L 309.5 79 L 291.5 71 L 291.5 70 Z " /><path fill="rgb(255,255,255)" stroke="rgb(255,255,255)" stroke-width="1" opacity="1" d="M 725.5 70 L 739 70.5 L 718.5 80 L 686.5 98 L 667.5 106 L 647.5 111 L 614.5 112 L 614.5 111 Q 654.5 102.5 687 86.5 L 684.5 86 L 639.5 102 L 607.5 110 L 607.5 109 L 621.5 104 L 674.5 79 L 700.5 73 L 724.5 71 L 725.5 70 Z M 688 85 L 688 86 L 690 86 L 688 85 Z " /><path fill="rgb(255,255,255)" stroke="rgb(255,255,255)" stroke-width="1" opacity="1" d="M 829.5 70 L 847 70.5 L 795.5 95 L 741.5 110 L 742.5 108 L 806 81.5 L 803.5 81 Q 768.5 91.5 738.5 107 L 739.5 105 L 775.5 83 L 788.5 77 L 804.5 73 L 816.5 72 L 817.5 71 L 828.5 71 L 829.5 70 Z " /><path fill="rgb(255,255,255)" stroke="rgb(255,255,255)" stroke-width="1" opacity="1" d="M 919.5 85 L 933 85.5 L 918.5 92 L 885.5 102 L 873.5 103 L 872.5 104 L 853.5 104 L 852.5 103 L 837 102.5 L 869.5 97 L 898 89.5 L 893.5 89 L 866.5 95 L 845.5 98 L 845.5 97 Q 860 89.5 878.5 86 L 918.5 86 L 919.5 85 Z " /><path fill="rgb(255,255,255)" stroke="rgb(255,255,255)" stroke-width="1" opacity="1" d="M 98.5 86 L 149.5 86 L 160.5 88 L 184 97.5 L 181.5 98 L 136.5 89 L 131.5 89 L 131.5 90 L 154.5 96 L 191 102.5 L 157.5 104 L 132.5 99 L 100.5 88 L 98.5 86 Z " /><path fill="rgb(255,255,255)" stroke="rgb(255,255,255)" stroke-width="1" opacity="1" d="M 922.5 104 L 943.5 106 Q 964.6 112.4 982 122.5 L 953.5 123 L 952.5 122 L 942.5 122 L 928.5 119 L 900 109.5 L 922.5 109 L 923.5 110 L 940.5 110 L 939.5 108 L 905 105.5 L 921.5 105 L 922.5 104 Z " /><path fill="rgb(255,255,255)" stroke="rgb(255,255,255)" stroke-width="1" opacity="1" d="M 89.5 105 L 125 105.5 L 114.5 106 L 113.5 107 L 97.5 107 L 89 109.5 L 103.5 110 L 104.5 109 L 129.5 109 L 129.5 110 L 105.5 118 L 87.5 122 L 77.5 122 L 76.5 123 L 46.5 123 L 46.5 122 L 78.5 108 L 89.5 105 Z " /><path fill="rgb(255,255,255)" stroke="rgb(255,255,255)" stroke-width="1" opacity="1" d="M 165.5 111 L 167 111.5 L 132.5 131 L 104.5 141 L 88.5 145 L 88.5 144 Q 112.8 124.3 146.5 114 L 146.5 115 Q 130.6 120.1 118 128.5 L 120.5 129 Q 141.6 118.6 165.5 111 Z " /><path fill="rgb(255,255,255)" stroke="rgb(255,255,255)" stroke-width="1" opacity="1" d="M 232.5 111 L 238 111.5 Q 210.2 118.2 187 129.5 L 189.5 130 L 224.5 118 L 246.5 113 L 261.5 112 L 261.5 113 L 252.5 115 L 220.5 130 L 196.5 138 L 179.5 141 L 170.5 141 L 169.5 142 L 154.5 142 L 153.5 143 L 131.5 144 L 131.5 143 L 201.5 117 L 217.5 113 L 231.5 112 L 232.5 111 Z " /><path fill="rgb(255,255,255)" stroke="rgb(255,255,255)" stroke-width="1" opacity="1" d="M 792.5 111 L 810.5 113 L 833.5 119 L 898 143.5 L 890.5 144 L 889.5 143 L 851.5 141 L 829.5 137 L 804.5 128 L 777.5 115 L 768 112.5 L 774.5 112 L 800.5 117 L 841.5 130 L 840.5 128 Q 818.6 117.9 792.5 112 L 792.5 111 Z " /><path fill="rgb(255,255,255)" stroke="rgb(255,255,255)" stroke-width="1" opacity="1" d="M 862.5 111 L 875.5 115 L 910.5 130 L 911 128.5 L 904.5 124 L 885 115.5 L 886.5 115 L 914.5 127 L 941 144.5 L 939.5 145 L 895.5 130 L 867.5 115 L 862.5 112 L 862.5 111 Z " /><path fill="rgb(255,255,255)" stroke="rgb(255,255,255)" stroke-width="1" opacity="1" d="M 383.5 128 L 386 128.5 L 347.5 146 L 318.5 157 L 299 167.5 L 300.5 168 L 348.5 149 L 385.5 132 L 385.5 133 L 345.5 160 L 327.5 169 L 312.5 174 L 279.5 181 L 262.5 187 L 262 185 L 304.5 155 L 319.5 147 L 334.5 141 L 369.5 133 L 383.5 128 Z " /><path fill="rgb(255,255,255)" stroke="rgb(255,255,255)" stroke-width="1" opacity="1" d="M 649.5 130 L 683.5 138 L 709.5 147 L 738.5 164 L 768 186.5 L 766.5 187 L 753.5 182 L 717.5 174 L 700.5 168 L 682.5 159 L 646 133.5 L 647.5 134 L 682.5 150 L 730.5 169 L 727.5 165 L 709.5 156 L 657.5 135 L 649.5 131 L 649.5 130 Z " /></svg>