<svg width="1018" height="166" version="1.1" xmlns="http://www.w3.org/2000/svg" desc="Created with imagetracer.js version 1.2.6" ><path fill="rgb(68,68,68)" stroke="rgb(68,68,68)" stroke-width="1" opacity="1" d="M 49.5 47 Q 64 46 69 54.5 Q 73.7 59.3 72 70.5 L 66.5 78 Q 62 82 52.5 81 L 48 79 L 44 69.5 L 46 63 L 49.5 61 L 55.5 61 L 58 62 L 60 67.5 L 57.5 72 L 55 73.5 L 59.5 74 L 65 67.5 L 65 62.5 L 59.5 56 L 52.5 54 Q 45.1 55.1 42 60.5 L 39 68.5 L 39 73.5 L 44.5 83 L 53.5 87 L 57 87 L 56 92.5 L 56.5 94 Q 41.4 94.1 36 84.5 Q 30.3 78.2 32 64.5 Q 33.9 55.4 40.5 51 L 49.5 47 Z " /><path fill="rgb(68,68,68)" stroke="rgb(68,68,68)" stroke-width="1" opacity="1" d="M 965.5 47 Q 980.9 46.1 986 55.5 L 990 63.5 L 991 72.5 L 989 80.5 L 980.5 90 Q 975.2 94.2 965.5 94 L 966 92.5 L 967 90.5 L 964 88.5 Q 964.6 93.9 963.5 94 L 592 94 L 591 89.5 L 594.5 87 L 962.5 87 L 964.5 87 Q 975.7 87.2 980 80.5 Q 984.3 76.3 983 66.5 Q 981.2 59.3 975.5 56 L 967.5 54 Q 961.8 55.3 959 59.5 Q 956.3 61.8 957 67.5 L 961.5 73 L 967.5 74 L 967.5 73 L 963 69.5 Q 961.8 63.3 965.5 62 L 973.5 61 L 978 67.5 L 978 71.5 L 973.5 79 Q 969.9 81.9 962.5 81 Q 955.3 79.2 952 73.5 Q 948.9 69.1 950 60.5 L 955.5 52 L 965.5 47 Z " /><path fill="rgb(68,68,68)" stroke="rgb(68,68,68)" stroke-width="1" opacity="1" d="M 510 54 L 513 55.5 L 523 71.5 L 523 78.5 L 512 91.5 L 523 103.5 L 523 110.5 L 511.5 128 L 501 113.5 Q 498.2 110.8 499 104.5 Q 502.8 95.3 511 90.5 L 500 79.5 L 499 71.5 L 510 54 Z " /><path fill="rgb(68,68,68)" stroke="rgb(68,68,68)" stroke-width="1" opacity="1" d="M 476.5 70 Q 483.9 69.1 487.5 72 L 507 90.5 L 489.5 108 Q 486 111.5 479.5 112 L 468.5 108 L 444 91.5 L 445.5 89 L 469.5 73 L 476.5 70 Z " /><path fill="rgb(68,68,68)" stroke="rgb(68,68,68)" stroke-width="1" opacity="1" d="M 540.5 70 L 546.5 70 L 551.5 72 L 579 90.5 L 553.5 108 L 547.5 111 Q 542.8 109.8 541.5 112 L 532.5 108 L 515 90.5 L 533.5 73 L 540.5 70 Z " /><path fill="rgb(68,68,68)" stroke="rgb(68,68,68)" stroke-width="1" opacity="1" d="M 59 87 L 428.5 87 L 431 89.5 Q 431.8 93.3 429.5 94 L 59.5 94 L 59 93.5 L 59 87 Z " /><path fill="rgb(255,255,255)" stroke="rgb(255,255,255)" stroke-width="1" opacity="1" d="M 0 0 L 1017.5 0 L 1018 0.5 L 1018 166 L 0.5 166 L 0 165.5 L 0 0 Z M 50 47 L 41 51 Q 34 55 32 65 Q 30 78 36 85 Q 41 94 57 94 L 56 93 L 57 87 L 54 87 L 45 83 L 39 74 L 39 69 L 42 61 Q 45 55 53 54 L 60 56 L 65 63 L 65 68 L 60 74 L 55 74 L 58 72 L 60 68 L 58 62 L 56 61 L 50 61 L 46 63 L 44 70 L 48 79 L 53 81 Q 62 82 67 78 L 72 71 Q 74 59 69 55 Q 64 46 50 47 Z M 966 47 L 956 52 L 950 61 Q 949 69 952 74 Q 955 79 963 81 Q 970 82 974 79 L 978 72 L 978 68 L 974 61 L 966 62 Q 962 63 963 70 L 968 73 L 968 74 L 962 73 L 957 68 Q 956 62 959 60 Q 962 55 968 54 L 976 56 Q 981 59 983 67 Q 984 76 980 81 Q 976 87 965 87 L 967 91 L 966 93 L 966 94 Q 975 94 981 90 L 989 81 L 991 73 L 990 64 L 986 56 Q 981 46 966 47 Z M 510 54 L 499 72 L 500 80 L 511 91 Q 503 95 499 105 Q 498 111 501 114 L 512 128 L 523 111 L 523 104 L 512 92 L 523 79 L 523 72 L 513 56 L 510 54 Z M 477 70 L 470 73 L 446 89 L 444 92 L 469 108 L 480 112 Q 486 111 490 108 L 507 91 L 488 72 Q 484 69 477 70 Z M 541 70 L 534 73 L 515 91 L 533 108 L 542 112 Q 543 110 548 111 L 554 108 L 579 91 L 552 72 L 547 70 L 541 70 Z M 59 87 L 59 94 L 60 94 L 430 94 Q 432 93 431 90 L 429 87 L 59 87 Z M 595 87 L 591 90 L 592 94 L 964 94 Q 965 94 964 89 L 963 87 L 595 87 Z " /></svg>