<svg width="442" height="388" version="1.1" xmlns="http://www.w3.org/2000/svg" desc="Created with imagetracer.js version 1.2.6" ><path fill="rgb(198,198,198)" stroke="rgb(198,198,198)" stroke-width="1" opacity="1" d="M 210.5 97 L 213 97.5 L 210.5 98 L 210.5 97 Z " /><path fill="rgb(198,198,198)" stroke="rgb(198,198,198)" stroke-width="1" opacity="1" d="M 200.5 98 L 199.5 100 L 200.5 98 Z " /><path fill="rgb(198,198,198)" stroke="rgb(198,198,198)" stroke-width="1" opacity="1" d="M 135.5 100 L 138 100.5 L 135.5 101 L 135.5 100 Z " /><path fill="rgb(198,198,198)" stroke="rgb(198,198,198)" stroke-width="1" opacity="1" d="M 219.5 100 L 223 102.5 L 221.5 102 L 219.5 100 Z " /><path fill="rgb(198,198,198)" stroke="rgb(198,198,198)" stroke-width="1" opacity="1" d="M 196.5 102 L 195.5 104 L 196.5 102 Z " /><path fill="rgb(198,198,198)" stroke="rgb(198,198,198)" stroke-width="1" opacity="1" d="M 224.5 103 L 229.5 109 L 224.5 103 Z " /><path fill="rgb(198,198,198)" stroke="rgb(198,198,198)" stroke-width="1" opacity="1" d="M 126.5 104 L 128 104.5 L 125.5 106 L 126.5 104 Z " /><path fill="rgb(198,198,198)" stroke="rgb(198,198,198)" stroke-width="1" opacity="1" d="M 148.5 105 L 149.5 107 L 148.5 105 Z " /><path fill="rgb(198,198,198)" stroke="rgb(198,198,198)" stroke-width="1" opacity="1" d="M 111.5 106 L 106.5 112 L 111.5 106 Z " /><path fill="rgb(198,198,198)" stroke="rgb(198,198,198)" stroke-width="1" opacity="1" d="M 151.5 107 L 156.5 113 L 151.5 107 Z " /><path fill="rgb(198,198,198)" stroke="rgb(198,198,198)" stroke-width="1" opacity="1" d="M 230.5 110 L 231.5 112 L 230.5 110 Z " /><path fill="rgb(198,198,198)" stroke="rgb(198,198,198)" stroke-width="1" opacity="1" d="M 105.5 113 L 104.5 115 L 105.5 113 Z " /><path fill="rgb(198,198,198)" stroke="rgb(198,198,198)" stroke-width="1" opacity="1" d="M 158.5 115 L 159.5 117 L 158.5 115 Z " /><path fill="rgb(198,198,198)" stroke="rgb(198,198,198)" stroke-width="1" opacity="1" d="M 191.5 116 L 192 129.5 L 191 129.5 L 191.5 116 Z " /><path fill="rgb(198,198,198)" stroke="rgb(198,198,198)" stroke-width="1" opacity="1" d="M 235.5 119 L 236.5 121 L 235.5 119 Z " /><path fill="rgb(198,198,198)" stroke="rgb(198,198,198)" stroke-width="1" opacity="1" d="M 100.5 123 L 101 125.5 L 100 125.5 L 100.5 123 Z " /><path fill="rgb(198,198,198)" stroke="rgb(198,198,198)" stroke-width="1" opacity="1" d="M 107.5 134 L 106.5 136 L 107.5 134 Z " /><path fill="rgb(198,198,198)" stroke="rgb(198,198,198)" stroke-width="1" opacity="1" d="M 102.5 136 L 103 138.5 L 102 138.5 L 102.5 136 Z " /><path fill="rgb(198,198,198)" stroke="rgb(198,198,198)" stroke-width="1" opacity="1" d="M 188.5 140 L 187.5 142 L 188.5 140 Z " /><path fill="rgb(198,198,198)" stroke="rgb(198,198,198)" stroke-width="1" opacity="1" d="M 279.5 140 L 287 140.5 L 279.5 141 L 279.5 140 Z " /><path fill="rgb(198,198,198)" stroke="rgb(198,198,198)" stroke-width="1" opacity="1" d="M 168.5 142 L 172.5 147 L 168.5 142 Z " /><path fill="rgb(198,198,198)" stroke="rgb(198,198,198)" stroke-width="1" opacity="1" d="M 291.5 142 L 296 144.5 L 294.5 144 Q 290.8 143.7 291.5 142 Z " /><path fill="rgb(198,198,198)" stroke="rgb(198,198,198)" stroke-width="1" opacity="1" d="M 104.5 143 L 102.5 146 L 104.5 143 Z " /><path fill="rgb(198,198,198)" stroke="rgb(198,198,198)" stroke-width="1" opacity="1" d="M 272.5 143 L 271.5 145 L 272.5 143 Z " /><path fill="rgb(198,198,198)" stroke="rgb(198,198,198)" stroke-width="1" opacity="1" d="M 184.5 144 L 183.5 146 L 184.5 144 Z " /><path fill="rgb(198,198,198)" stroke="rgb(198,198,198)" stroke-width="1" opacity="1" d="M 297.5 145 L 300.5 149 L 297.5 145 Z " /><path fill="rgb(198,198,198)" stroke="rgb(198,198,198)" stroke-width="1" opacity="1" d="M 174.5 147 L 180 147.5 L 174.5 148 L 174.5 147 Z " /><path fill="rgb(198,198,198)" stroke="rgb(198,198,198)" stroke-width="1" opacity="1" d="M 267.5 147 L 261.5 154 L 267.5 147 Z " /><path fill="rgb(198,198,198)" stroke="rgb(198,198,198)" stroke-width="1" opacity="1" d="M 294.5 147 L 294.5 150 Q 292.3 150.8 293 148.5 L 294.5 147 Z " /><path fill="rgb(198,198,198)" stroke="rgb(198,198,198)" stroke-width="1" opacity="1" d="M 210.5 149 Q 212.8 148.3 212 150.5 L 209 150.5 L 210.5 149 Z " /><path fill="rgb(198,198,198)" stroke="rgb(198,198,198)" stroke-width="1" opacity="1" d="M 299.5 150 L 297.5 153 L 299.5 150 Z " /><path fill="rgb(198,198,198)" stroke="rgb(198,198,198)" stroke-width="1" opacity="1" d="M 302.5 150 L 303.5 152 L 302.5 150 Z " /><path fill="rgb(198,198,198)" stroke="rgb(198,198,198)" stroke-width="1" opacity="1" d="M 65.5 151 L 74 151.5 L 65.5 152 L 65.5 151 Z " /><path fill="rgb(198,198,198)" stroke="rgb(198,198,198)" stroke-width="1" opacity="1" d="M 77.5 152 L 80 152.5 L 77.5 153 L 77.5 152 Z " /><path fill="rgb(198,198,198)" stroke="rgb(198,198,198)" stroke-width="1" opacity="1" d="M 247.5 152 L 249.5 155 L 247.5 152 Z " /><path fill="rgb(198,198,198)" stroke="rgb(198,198,198)" stroke-width="1" opacity="1" d="M 101.5 153 L 99.5 156 L 101.5 153 Z " /><path fill="rgb(198,198,198)" stroke="rgb(198,198,198)" stroke-width="1" opacity="1" d="M 265.5 153 L 268 153.5 L 265.5 154 L 265.5 153 Z " /><path fill="rgb(198,198,198)" stroke="rgb(198,198,198)" stroke-width="1" opacity="1" d="M 304.5 153 L 305.5 155 L 304.5 153 Z " /><path fill="rgb(198,198,198)" stroke="rgb(198,198,198)" stroke-width="1" opacity="1" d="M 259.5 154 L 262 155.5 L 260.5 156 L 259.5 154 Z " /><path fill="rgb(198,198,198)" stroke="rgb(198,198,198)" stroke-width="1" opacity="1" d="M 297.5 154 L 300.5 155 L 302 154.5 L 298.5 156 L 297.5 154 Z " /><path fill="rgb(198,198,198)" stroke="rgb(198,198,198)" stroke-width="1" opacity="1" d="M 251.5 155 L 257 155.5 L 251.5 156 L 251.5 155 Z " /><path fill="rgb(198,198,198)" stroke="rgb(198,198,198)" stroke-width="1" opacity="1" d="M 90.5 156 L 97 156.5 L 90.5 157 L 90.5 156 Z " /><path fill="rgb(198,198,198)" stroke="rgb(198,198,198)" stroke-width="1" opacity="1" d="M 123.5 156 L 129.5 163 Q 127.3 158.8 125 160.5 L 125.5 159 Q 123.3 159.8 124 157.5 L 123.5 156 Z " /><path fill="rgb(198,198,198)" stroke="rgb(198,198,198)" stroke-width="1" opacity="1" d="M 51.5 157 L 44.5 165 L 51.5 157 Z " /><path fill="rgb(198,198,198)" stroke="rgb(198,198,198)" stroke-width="1" opacity="1" d="M 307.5 158 L 309 160.5 L 307.5 160 L 305.5 161 L 307.5 158 Z " /><path fill="rgb(198,198,198)" stroke="rgb(198,198,198)" stroke-width="1" opacity="1" d="M 260.5 159 L 261 160.5 L 257.5 163 L 260.5 159 Z " /><path fill="rgb(198,198,198)" stroke="rgb(198,198,198)" stroke-width="1" opacity="1" d="M 214.5 160 L 216 160.5 L 214 161 Q 215 164 212 163 Q 210.9 160.3 213.5 161 L 214.5 160 Z " /><path fill="rgb(198,198,198)" stroke="rgb(198,198,198)" stroke-width="1" opacity="1" d="M 217.5 160 Q 221.9 158.5 221 161.5 L 219 162.5 L 219.5 161 Q 216.5 161.5 217.5 160 Z " /><path fill="rgb(198,198,198)" stroke="rgb(198,198,198)" stroke-width="1" opacity="1" d="M 298.5 160 L 297.5 162 L 298.5 160 Z " /><path fill="rgb(198,198,198)" stroke="rgb(198,198,198)" stroke-width="1" opacity="1" d="M 231.5 161 L 232 165.5 L 229.5 167 L 229.5 166 Q 232.1 166.8 231 163.5 Q 228.8 162.3 231.5 161 Z " /><path fill="rgb(198,198,198)" stroke="rgb(198,198,198)" stroke-width="1" opacity="1" d="M 203.5 163 L 205.5 166 L 203.5 163 Z " /><path fill="rgb(198,198,198)" stroke="rgb(198,198,198)" stroke-width="1" opacity="1" d="M 297.5 163 L 298.5 165 L 297.5 163 Z " /><path fill="rgb(198,198,198)" stroke="rgb(198,198,198)" stroke-width="1" opacity="1" d="M 200.5 164 L 203 165.5 L 201.5 165 L 200.5 164 Z " /><path fill="rgb(198,198,198)" stroke="rgb(198,198,198)" stroke-width="1" opacity="1" d="M 257.5 164 L 259 164.5 L 255.5 166 L 255.5 165 L 257.5 164 Z " /><path fill="rgb(198,198,198)" stroke="rgb(198,198,198)" stroke-width="1" opacity="1" d="M 131.5 165 L 135.5 170 L 131.5 165 Z " /><path fill="rgb(198,198,198)" stroke="rgb(198,198,198)" stroke-width="1" opacity="1" d="M 43.5 166 L 42.5 168 L 43.5 166 Z " /><path fill="rgb(198,198,198)" stroke="rgb(198,198,198)" stroke-width="1" opacity="1" d="M 128.5 166 L 129.5 168 L 128.5 166 Z " /><path fill="rgb(198,198,198)" stroke="rgb(198,198,198)" stroke-width="1" opacity="1" d="M 178.5 166 L 181 166.5 L 178.5 167 L 178.5 166 Z " /><path fill="rgb(198,198,198)" stroke="rgb(198,198,198)" stroke-width="1" opacity="1" d="M 81 167 Q 84 166 83 169 Q 80 170 81 167 Z " /><path fill="rgb(198,198,198)" stroke="rgb(198,198,198)" stroke-width="1" opacity="1" d="M 204.5 167 L 207 167.5 L 204.5 168 L 204.5 167 Z " /><path fill="rgb(198,198,198)" stroke="rgb(198,198,198)" stroke-width="1" opacity="1" d="M 304.5 168 L 308 169.5 L 306.5 170 L 304.5 168 Z " /><path fill="rgb(198,198,198)" stroke="rgb(198,198,198)" stroke-width="1" opacity="1" d="M 41.5 169 L 41 170.5 L 40.5 172 L 40 170.5 L 41.5 169 Z " /><path fill="rgb(198,198,198)" stroke="rgb(198,198,198)" stroke-width="1" opacity="1" d="M 206.5 169 L 207 172 Q 204.3 173.1 205 170.5 L 206.5 169 Z " /><path fill="rgb(198,198,198)" stroke="rgb(198,198,198)" stroke-width="1" opacity="1" d="M 201.5 170 Q 206 172 202.5 174 L 201.5 170 Z " /><path fill="rgb(198,198,198)" stroke="rgb(198,198,198)" stroke-width="1" opacity="1" d="M 131.5 171 L 132.5 173 L 131.5 171 Z " /><path fill="rgb(198,198,198)" stroke="rgb(198,198,198)" stroke-width="1" opacity="1" d="M 137.5 172 L 141.5 177 L 137.5 172 Z " /><path fill="rgb(198,198,198)" stroke="rgb(198,198,198)" stroke-width="1" opacity="1" d="M 220.5 173 L 222 177.5 L 221 177.5 L 220.5 175 L 219 175.5 L 220.5 173 Z " /><path fill="rgb(198,198,198)" stroke="rgb(198,198,198)" stroke-width="1" opacity="1" d="M 133.5 174 L 134.5 176 L 133.5 174 Z " /><path fill="rgb(198,198,198)" stroke="rgb(198,198,198)" stroke-width="1" opacity="1" d="M 204.5 174 L 206.5 177 L 204.5 174 Z " /><path fill="rgb(198,198,198)" stroke="rgb(198,198,198)" stroke-width="1" opacity="1" d="M 187.5 175 L 189 177.5 L 187 176.5 L 187.5 175 Z " /><path fill="rgb(198,198,198)" stroke="rgb(198,198,198)" stroke-width="1" opacity="1" d="M 201.5 176 L 204 176.5 L 202.5 178 L 200 177.5 L 201.5 176 Z " /><path fill="rgb(198,198,198)" stroke="rgb(198,198,198)" stroke-width="1" opacity="1" d="M 132.5 177 L 133 179.5 L 132 179.5 L 132.5 177 Z " /><path fill="rgb(198,198,198)" stroke="rgb(198,198,198)" stroke-width="1" opacity="1" d="M 136.5 178 L 137.5 180 L 136.5 178 Z " /><path fill="rgb(198,198,198)" stroke="rgb(198,198,198)" stroke-width="1" opacity="1" d="M 207.5 178 L 208.5 180 L 207.5 178 Z " /><path fill="rgb(198,198,198)" stroke="rgb(198,198,198)" stroke-width="1" opacity="1" d="M 143.5 179 L 147.5 184 L 143.5 179 Z " /><path fill="rgb(198,198,198)" stroke="rgb(198,198,198)" stroke-width="1" opacity="1" d="M 220.5 179 L 222 182.5 L 220 183.5 L 221 180.5 L 219 180.5 L 220.5 179 Z " /><path fill="rgb(198,198,198)" stroke="rgb(198,198,198)" stroke-width="1" opacity="1" d="M 235.5 179 L 236.5 181 Q 233.7 181.7 235.5 179 Z " /><path fill="rgb(198,198,198)" stroke="rgb(198,198,198)" stroke-width="1" opacity="1" d="M 250 179 L 252 179.5 L 251 181.5 L 251.5 183 L 250 179 Z " /><path fill="rgb(198,198,198)" stroke="rgb(198,198,198)" stroke-width="1" opacity="1" d="M 248.5 180 L 248.5 183 L 246 182.5 Q 245.3 180.3 247.5 181 L 248.5 180 Z " /><path fill="rgb(198,198,198)" stroke="rgb(198,198,198)" stroke-width="1" opacity="1" d="M 138.5 181 L 140.5 184 L 138.5 181 Z " /><path fill="rgb(198,198,198)" stroke="rgb(198,198,198)" stroke-width="1" opacity="1" d="M 210.5 182 L 212.5 185 L 210.5 182 Z " /><path fill="rgb(198,198,198)" stroke="rgb(198,198,198)" stroke-width="1" opacity="1" d="M 119.5 183 L 119.5 185 L 123 185.5 L 119.5 186 Q 116.5 184.5 119.5 183 Z " /><path fill="rgb(198,198,198)" stroke="rgb(198,198,198)" stroke-width="1" opacity="1" d="M 276.5 183 L 280.5 188 L 278 186.5 L 277.5 188 L 277 186.5 L 278 185.5 L 276.5 183 Z " /><path fill="rgb(198,198,198)" stroke="rgb(198,198,198)" stroke-width="1" opacity="1" d="M 35.5 184 L 37.5 184 L 39 184.5 L 35 186 L 35.5 184 Z " /><path fill="rgb(198,198,198)" stroke="rgb(198,198,198)" stroke-width="1" opacity="1" d="M 240.5 184 L 241.5 186 L 240.5 184 Z " /><path fill="rgb(198,198,198)" stroke="rgb(198,198,198)" stroke-width="1" opacity="1" d="M 76.5 185 L 82 187 L 82.5 189 L 84 188.5 Q 82.8 191.3 81.5 189 Q 76.9 187.8 76.5 185 Z " /><path fill="rgb(198,198,198)" stroke="rgb(198,198,198)" stroke-width="1" opacity="1" d="M 142.5 186 L 144.5 189 Q 142.5 185 140.5 189 L 137 187.5 L 139.5 187 Q 141 189.5 142.5 186 Z " /><path fill="rgb(198,198,198)" stroke="rgb(198,198,198)" stroke-width="1" opacity="1" d="M 149.5 186 L 153.5 191 L 149.5 186 Z " /><path fill="rgb(198,198,198)" stroke="rgb(198,198,198)" stroke-width="1" opacity="1" d="M 213.5 186 L 215.5 189 L 213.5 186 Z " /><path fill="rgb(198,198,198)" stroke="rgb(198,198,198)" stroke-width="1" opacity="1" d="M 231.5 186 Q 233.8 185.3 233 187.5 L 231.5 186 Z " /><path fill="rgb(198,198,198)" stroke="rgb(198,198,198)" stroke-width="1" opacity="1" d="M 234.5 186 L 235.5 188 L 234.5 186 Z " /><path fill="rgb(198,198,198)" stroke="rgb(198,198,198)" stroke-width="1" opacity="1" d="M 34.5 189 L 35 200.5 L 34 200.5 L 34.5 189 Z " /><path fill="rgb(198,198,198)" stroke="rgb(198,198,198)" stroke-width="1" opacity="1" d="M 85.5 189 L 87 189.5 L 84.5 191 L 85.5 189 Z " /><path fill="rgb(198,198,198)" stroke="rgb(198,198,198)" stroke-width="1" opacity="1" d="M 259.5 189 L 258.5 191 L 259.5 189 Z " /><path fill="rgb(198,198,198)" stroke="rgb(198,198,198)" stroke-width="1" opacity="1" d="M 218.5 190 Q 220.3 193.1 222 191.5 Q 222.8 193.8 220.5 193 Q 218.7 195.7 217 191.5 L 218.5 190 Z " /><path fill="rgb(198,198,198)" stroke="rgb(198,198,198)" stroke-width="1" opacity="1" d="M 232.5 190 L 233.5 192 L 232.5 190 Z " /><path fill="rgb(198,198,198)" stroke="rgb(198,198,198)" stroke-width="1" opacity="1" d="M 282.5 190 L 284.5 193 L 282.5 190 Z " /><path fill="rgb(198,198,198)" stroke="rgb(198,198,198)" stroke-width="1" opacity="1" d="M 260.5 191 L 259.5 193 L 258 192.5 L 260.5 191 Z " /><path fill="rgb(198,198,198)" stroke="rgb(198,198,198)" stroke-width="1" opacity="1" d="M 113.5 192 L 114.5 194 Q 111.7 194.7 113.5 192 Z " /><path fill="rgb(198,198,198)" stroke="rgb(198,198,198)" stroke-width="1" opacity="1" d="M 147.5 192 L 159.5 205 L 147.5 192 Z " /><path fill="rgb(198,198,198)" stroke="rgb(198,198,198)" stroke-width="1" opacity="1" d="M 321.5 192 L 322.5 194 L 321.5 192 Z " /><path fill="rgb(198,198,198)" stroke="rgb(198,198,198)" stroke-width="1" opacity="1" d="M 90.5 193 L 94 194.5 L 92.5 195 L 90.5 193 Z " /><path fill="rgb(198,198,198)" stroke="rgb(198,198,198)" stroke-width="1" opacity="1" d="M 155.5 193 L 159.5 198 L 155.5 193 Z " /><path fill="rgb(198,198,198)" stroke="rgb(198,198,198)" stroke-width="1" opacity="1" d="M 202.5 193 L 205 194 Q 206.1 196.7 203.5 196 L 202.5 193 Z " /><path fill="rgb(198,198,198)" stroke="rgb(198,198,198)" stroke-width="1" opacity="1" d="M 187.5 194 L 186.5 196 L 187.5 194 Z " /><path fill="rgb(198,198,198)" stroke="rgb(198,198,198)" stroke-width="1" opacity="1" d="M 189.5 194 L 190 197.5 L 189 197.5 L 189.5 194 Z " /><path fill="rgb(198,198,198)" stroke="rgb(198,198,198)" stroke-width="1" opacity="1" d="M 220.5 195 L 223.5 199 L 220.5 195 Z " /><path fill="rgb(198,198,198)" stroke="rgb(198,198,198)" stroke-width="1" opacity="1" d="M 260.5 195 L 260 196.5 Q 259.3 198.8 261.5 198 L 261.5 199 L 259 197.5 L 260.5 195 Z " /><path fill="rgb(198,198,198)" stroke="rgb(198,198,198)" stroke-width="1" opacity="1" d="M 286.5 195 L 289.5 199 L 286.5 195 Z " /><path fill="rgb(198,198,198)" stroke="rgb(198,198,198)" stroke-width="1" opacity="1" d="M 323.5 195 L 324.5 197 L 323.5 195 Z " /><path fill="rgb(198,198,198)" stroke="rgb(198,198,198)" stroke-width="1" opacity="1" d="M 214.5 196 L 223 205.5 L 216.5 200 Q 213.9 200.8 215 197.5 L 214.5 196 Z " /><path fill="rgb(198,198,198)" stroke="rgb(198,198,198)" stroke-width="1" opacity="1" d="M 281.5 196 L 282.5 198 L 281.5 196 Z " /><path fill="rgb(198,198,198)" stroke="rgb(198,198,198)" stroke-width="1" opacity="1" d="M 242.5 197 L 245 198.5 L 243.5 198 L 239.5 199 L 239.5 198 L 242.5 197 Z " /><path fill="rgb(198,198,198)" stroke="rgb(198,198,198)" stroke-width="1" opacity="1" d="M 270 197 L 272 197.5 L 269 199.5 L 270 197 Z " /><path fill="rgb(198,198,198)" stroke="rgb(198,198,198)" stroke-width="1" opacity="1" d="M 326.5 199 L 331 203.5 L 329.5 206 L 331.5 205 L 330.5 207 L 328 205.5 L 330 203.5 L 326.5 199 Z " /><path fill="rgb(198,198,198)" stroke="rgb(198,198,198)" stroke-width="1" opacity="1" d="M 102.5 200 L 103 201.5 Q 101.5 204.5 100 201.5 L 102 201.5 L 102.5 200 Z " /><path fill="rgb(198,198,198)" stroke="rgb(198,198,198)" stroke-width="1" opacity="1" d="M 120.5 200 L 123 200.5 L 120.5 201 L 120.5 200 Z " /><path fill="rgb(198,198,198)" stroke="rgb(198,198,198)" stroke-width="1" opacity="1" d="M 161.5 200 L 165.5 205 L 161.5 200 Z " /><path fill="rgb(198,198,198)" stroke="rgb(198,198,198)" stroke-width="1" opacity="1" d="M 239.5 200 L 243 200.5 Q 238.3 200.3 237 203.5 L 238.5 206 Q 233 203 239.5 200 Z " /><path fill="rgb(198,198,198)" stroke="rgb(198,198,198)" stroke-width="1" opacity="1" d="M 45.5 201 L 46 202.5 L 44 203.5 L 45.5 201 Z " /><path fill="rgb(198,198,198)" stroke="rgb(198,198,198)" stroke-width="1" opacity="1" d="M 225.5 201 L 228.5 205 L 225.5 201 Z " /><path fill="rgb(198,198,198)" stroke="rgb(198,198,198)" stroke-width="1" opacity="1" d="M 291.5 201 L 296.5 207 L 291.5 201 Z " /><path fill="rgb(198,198,198)" stroke="rgb(198,198,198)" stroke-width="1" opacity="1" d="M 195.5 202 L 196.5 204 L 195.5 202 Z " /><path fill="rgb(198,198,198)" stroke="rgb(198,198,198)" stroke-width="1" opacity="1" d="M 285.5 202 L 286.5 204 L 285.5 202 Z " /><path fill="rgb(198,198,198)" stroke="rgb(198,198,198)" stroke-width="1" opacity="1" d="M 133.5 203 L 136 203.5 L 133.5 204 L 133.5 203 Z " /><path fill="rgb(198,198,198)" stroke="rgb(198,198,198)" stroke-width="1" opacity="1" d="M 138.5 204 L 141 204.5 L 138.5 205 L 138.5 204 Z " /><path fill="rgb(198,198,198)" stroke="rgb(198,198,198)" stroke-width="1" opacity="1" d="M 143.5 205 L 146 205.5 L 143.5 206 L 143.5 205 Z " /><path fill="rgb(198,198,198)" stroke="rgb(198,198,198)" stroke-width="1" opacity="1" d="M 333.5 205 L 335.5 208 L 333.5 205 Z " /><path fill="rgb(198,198,198)" stroke="rgb(198,198,198)" stroke-width="1" opacity="1" d="M 38.5 206 L 39.5 208 Q 36.7 208.7 38.5 206 Z " /><path fill="rgb(198,198,198)" stroke="rgb(198,198,198)" stroke-width="1" opacity="1" d="M 148.5 206 L 151 206.5 L 148.5 207 L 148.5 206 Z " /><path fill="rgb(198,198,198)" stroke="rgb(198,198,198)" stroke-width="1" opacity="1" d="M 162.5 206 L 164.5 209 L 162.5 209 L 160 208.5 L 163 207.5 L 162.5 206 Z " /><path fill="rgb(198,198,198)" stroke="rgb(198,198,198)" stroke-width="1" opacity="1" d="M 288.5 206 L 293.5 212 L 288.5 206 Z " /><path fill="rgb(198,198,198)" stroke="rgb(198,198,198)" stroke-width="1" opacity="1" d="M 43 207 L 45 207.5 L 43 208.5 L 43 207 Z " /><path fill="rgb(198,198,198)" stroke="rgb(198,198,198)" stroke-width="1" opacity="1" d="M 154.5 207 L 157 207.5 L 154.5 208 L 154.5 207 Z " /><path fill="rgb(198,198,198)" stroke="rgb(198,198,198)" stroke-width="1" opacity="1" d="M 214 207 L 217 207.5 L 215 208.5 L 215.5 210 L 214 207 Z " /><path fill="rgb(198,198,198)" stroke="rgb(198,198,198)" stroke-width="1" opacity="1" d="M 224.5 207 L 229 211.5 L 229 213.5 L 228 213.5 L 228 211.5 L 224.5 207 Z " /><path fill="rgb(198,198,198)" stroke="rgb(198,198,198)" stroke-width="1" opacity="1" d="M 230.5 207 L 235.5 213 L 230.5 207 Z " /><path fill="rgb(198,198,198)" stroke="rgb(198,198,198)" stroke-width="1" opacity="1" d="M 135.5 209 L 138 209.5 Q 135.9 212.8 135.5 209 Z " /><path fill="rgb(198,198,198)" stroke="rgb(198,198,198)" stroke-width="1" opacity="1" d="M 298.5 209 L 304.5 216 L 298.5 209 Z " /><path fill="rgb(198,198,198)" stroke="rgb(198,198,198)" stroke-width="1" opacity="1" d="M 173.5 210 L 177 210.5 L 173.5 211 L 173.5 210 Z " /><path fill="rgb(198,198,198)" stroke="rgb(198,198,198)" stroke-width="1" opacity="1" d="M 387.5 210 L 391 210.5 L 387.5 211 L 387.5 210 Z " /><path fill="rgb(198,198,198)" stroke="rgb(198,198,198)" stroke-width="1" opacity="1" d="M 400.5 210 L 403 210.5 L 400.5 211 L 400.5 210 Z " /><path fill="rgb(198,198,198)" stroke="rgb(198,198,198)" stroke-width="1" opacity="1" d="M 144.5 211 L 147 211.5 L 144.5 212 L 144.5 211 Z " /><path fill="rgb(198,198,198)" stroke="rgb(198,198,198)" stroke-width="1" opacity="1" d="M 180.5 211 L 184 211.5 L 180.5 212 L 180.5 211 Z " /><path fill="rgb(198,198,198)" stroke="rgb(198,198,198)" stroke-width="1" opacity="1" d="M 331.5 211 Q 333.8 210.3 333 212.5 L 329 213.5 L 331.5 211 Z " /><path fill="rgb(198,198,198)" stroke="rgb(198,198,198)" stroke-width="1" opacity="1" d="M 149.5 212 L 152.5 214 L 156.5 213 L 156.5 214 L 150 215 L 149.5 212 Z " /><path fill="rgb(198,198,198)" stroke="rgb(198,198,198)" stroke-width="1" opacity="1" d="M 187.5 212 L 191 212.5 L 187.5 213 L 187.5 212 Z " /><path fill="rgb(198,198,198)" stroke="rgb(198,198,198)" stroke-width="1" opacity="1" d="M 207 212 L 209 212.5 L 208 215 L 203 214.5 L 207 214 L 207 212 Z " /><path fill="rgb(198,198,198)" stroke="rgb(198,198,198)" stroke-width="1" opacity="1" d="M 407.5 212 L 409 214.5 L 408 214.5 L 407.5 212 Z " /><path fill="rgb(198,198,198)" stroke="rgb(198,198,198)" stroke-width="1" opacity="1" d="M 195.5 213 L 199 213.5 L 195.5 214 L 195.5 213 Z " /><path fill="rgb(198,198,198)" stroke="rgb(198,198,198)" stroke-width="1" opacity="1" d="M 296.5 213 L 298.5 216 L 296.5 213 Z " /><path fill="rgb(198,198,198)" stroke="rgb(198,198,198)" stroke-width="1" opacity="1" d="M 371.5 213 L 374 213.5 L 371.5 214 L 371.5 213 Z " /><path fill="rgb(198,198,198)" stroke="rgb(198,198,198)" stroke-width="1" opacity="1" d="M 159.5 214 L 162 214.5 L 159.5 215 L 159.5 214 Z " /><path fill="rgb(198,198,198)" stroke="rgb(198,198,198)" stroke-width="1" opacity="1" d="M 210.5 214 L 216 215.5 L 211.5 216 L 210.5 214 Z " /><path fill="rgb(198,198,198)" stroke="rgb(198,198,198)" stroke-width="1" opacity="1" d="M 232.5 214 L 233.5 216 L 232.5 214 Z " /><path fill="rgb(198,198,198)" stroke="rgb(198,198,198)" stroke-width="1" opacity="1" d="M 237.5 214 L 240.5 218 L 237.5 214 Z " /><path fill="rgb(198,198,198)" stroke="rgb(198,198,198)" stroke-width="1" opacity="1" d="M 353.5 214 L 356 214.5 L 353.5 215 L 353.5 214 Z " /><path fill="rgb(198,198,198)" stroke="rgb(198,198,198)" stroke-width="1" opacity="1" d="M 364.5 214 L 368 214.5 L 364.5 215 L 364.5 214 Z " /><path fill="rgb(198,198,198)" stroke="rgb(198,198,198)" stroke-width="1" opacity="1" d="M 39.5 215 L 40.5 217 L 39.5 215 Z " /><path fill="rgb(198,198,198)" stroke="rgb(198,198,198)" stroke-width="1" opacity="1" d="M 164.5 215 L 167 215.5 L 164.5 216 L 164.5 215 Z " /><path fill="rgb(198,198,198)" stroke="rgb(198,198,198)" stroke-width="1" opacity="1" d="M 170.5 216 Q 174.9 214.5 174 217.5 L 172.5 217 Q 169.5 217.5 170.5 216 Z " /><path fill="rgb(198,198,198)" stroke="rgb(198,198,198)" stroke-width="1" opacity="1" d="M 220.5 216 L 225 216.5 L 220.5 217 L 220.5 216 Z " /><path fill="rgb(198,198,198)" stroke="rgb(198,198,198)" stroke-width="1" opacity="1" d="M 235.5 216 L 236.5 218 L 235.5 216 Z " /><path fill="rgb(198,198,198)" stroke="rgb(198,198,198)" stroke-width="1" opacity="1" d="M 306.5 216 Q 309.3 217.3 307 218.5 Q 306.2 221.1 309.5 220 L 309.5 221 L 295 219.5 L 304.5 219 L 307 217.5 L 306.5 216 Z " /><path fill="rgb(198,198,198)" stroke="rgb(198,198,198)" stroke-width="1" opacity="1" d="M 407.5 216 L 406.5 218 L 407.5 216 Z " /><path fill="rgb(198,198,198)" stroke="rgb(198,198,198)" stroke-width="1" opacity="1" d="M 229.5 217 L 234 217.5 L 229.5 218 L 229.5 217 Z " /><path fill="rgb(198,198,198)" stroke="rgb(198,198,198)" stroke-width="1" opacity="1" d="M 41.5 218 L 44.5 222 L 41.5 218 Z " /><path fill="rgb(198,198,198)" stroke="rgb(198,198,198)" stroke-width="1" opacity="1" d="M 178.5 218 L 177.5 220 L 178.5 218 Z " /><path fill="rgb(198,198,198)" stroke="rgb(198,198,198)" stroke-width="1" opacity="1" d="M 183.5 218 L 187 218.5 L 183.5 219 L 183.5 218 Z " /><path fill="rgb(198,198,198)" stroke="rgb(198,198,198)" stroke-width="1" opacity="1" d="M 242.5 218 L 246 218.5 L 242.5 219 L 242.5 218 Z " /><path fill="rgb(198,198,198)" stroke="rgb(198,198,198)" stroke-width="1" opacity="1" d="M 313.5 218 L 319 218.5 L 312.5 220 L 313.5 218 Z " /><path fill="rgb(198,198,198)" stroke="rgb(198,198,198)" stroke-width="1" opacity="1" d="M 119.5 219 L 120 221 L 118 220.5 L 119.5 219 Z " /><path fill="rgb(198,198,198)" stroke="rgb(198,198,198)" stroke-width="1" opacity="1" d="M 130 219 L 132 219.5 L 131.5 222 Q 128.5 222.7 130 219 Z " /><path fill="rgb(198,198,198)" stroke="rgb(198,198,198)" stroke-width="1" opacity="1" d="M 191.5 219 L 195 219.5 L 191.5 220 L 191.5 219 Z " /><path fill="rgb(198,198,198)" stroke="rgb(198,198,198)" stroke-width="1" opacity="1" d="M 253.5 219 L 263 219.5 L 253.5 220 L 253.5 219 Z " /><path fill="rgb(198,198,198)" stroke="rgb(198,198,198)" stroke-width="1" opacity="1" d="M 326.5 219 Q 328.8 218.3 328 220.5 L 330 220.5 Q 330.8 222.8 328.5 222 L 326.5 219 Z " /><path fill="rgb(198,198,198)" stroke="rgb(198,198,198)" stroke-width="1" opacity="1" d="M 198.5 220 L 203 220.5 L 198.5 221 L 198.5 220 Z " /><path fill="rgb(198,198,198)" stroke="rgb(198,198,198)" stroke-width="1" opacity="1" d="M 395.5 220 L 398 220.5 L 395.5 221 L 395.5 220 Z " /><path fill="rgb(198,198,198)" stroke="rgb(198,198,198)" stroke-width="1" opacity="1" d="M 207.5 221 L 212 221.5 L 207.5 222 L 207.5 221 Z " /><path fill="rgb(198,198,198)" stroke="rgb(198,198,198)" stroke-width="1" opacity="1" d="M 301.5 221 Q 303.8 220.3 303 222.5 L 301 223.5 L 301.5 221 Z " /><path fill="rgb(198,198,198)" stroke="rgb(198,198,198)" stroke-width="1" opacity="1" d="M 344.5 221 L 343.5 223 L 344.5 221 Z " /><path fill="rgb(198,198,198)" stroke="rgb(198,198,198)" stroke-width="1" opacity="1" d="M 371.5 221 L 370.5 223 L 371.5 221 Z " /><path fill="rgb(198,198,198)" stroke="rgb(198,198,198)" stroke-width="1" opacity="1" d="M 378.5 221 L 388 221.5 L 378.5 222 L 378.5 221 Z " /><path fill="rgb(198,198,198)" stroke="rgb(198,198,198)" stroke-width="1" opacity="1" d="M 217.5 222 L 222 222.5 L 217.5 223 L 217.5 222 Z " /><path fill="rgb(198,198,198)" stroke="rgb(198,198,198)" stroke-width="1" opacity="1" d="M 294.5 222 L 297 222.5 L 294.5 223 L 294.5 222 Z " /><path fill="rgb(198,198,198)" stroke="rgb(198,198,198)" stroke-width="1" opacity="1" d="M 305.5 222 L 303.5 225 L 305.5 222 Z " /><path fill="rgb(198,198,198)" stroke="rgb(198,198,198)" stroke-width="1" opacity="1" d="M 79.5 223 L 77.5 226 L 79.5 223 Z " /><path fill="rgb(198,198,198)" stroke="rgb(198,198,198)" stroke-width="1" opacity="1" d="M 118.5 223 L 119 225 L 117 224.5 L 118.5 223 Z " /><path fill="rgb(198,198,198)" stroke="rgb(198,198,198)" stroke-width="1" opacity="1" d="M 227.5 223 Q 233.6 221.8 233 224.5 L 231 225.5 L 231.5 224 Q 226.5 225 227.5 223 Z " /><path fill="rgb(198,198,198)" stroke="rgb(198,198,198)" stroke-width="1" opacity="1" d="M 283.5 223 L 290 223.5 L 283.5 224 L 283.5 223 Z " /><path fill="rgb(198,198,198)" stroke="rgb(198,198,198)" stroke-width="1" opacity="1" d="M 85.5 224 L 86 226 L 81 225.5 L 85.5 224 Z " /><path fill="rgb(198,198,198)" stroke="rgb(198,198,198)" stroke-width="1" opacity="1" d="M 159.5 224 L 158.5 226 L 159.5 224 Z " /><path fill="rgb(198,198,198)" stroke="rgb(198,198,198)" stroke-width="1" opacity="1" d="M 169.5 224 L 168.5 226 L 169.5 224 Z " /><path fill="rgb(198,198,198)" stroke="rgb(198,198,198)" stroke-width="1" opacity="1" d="M 247.5 224 L 276 224.5 L 247.5 225 L 247.5 224 Z " /><path fill="rgb(198,198,198)" stroke="rgb(198,198,198)" stroke-width="1" opacity="1" d="M 299.5 224 L 298.5 226 L 299.5 224 Z " /><path fill="rgb(198,198,198)" stroke="rgb(198,198,198)" stroke-width="1" opacity="1" d="M 236.5 225 L 234.5 228 L 236.5 225 Z " /><path fill="rgb(198,198,198)" stroke="rgb(198,198,198)" stroke-width="1" opacity="1" d="M 71.5 226 L 74 226.5 L 71.5 227 L 71.5 226 Z " /><path fill="rgb(198,198,198)" stroke="rgb(198,198,198)" stroke-width="1" opacity="1" d="M 90.5 226 L 98 231.5 L 93.5 228 Q 89.7 227.7 90.5 226 Z " /><path fill="rgb(198,198,198)" stroke="rgb(198,198,198)" stroke-width="1" opacity="1" d="M 156.5 226 L 154.5 229 L 156.5 226 Z " /><path fill="rgb(198,198,198)" stroke="rgb(198,198,198)" stroke-width="1" opacity="1" d="M 166.5 226 L 165.5 228 L 166.5 226 Z " /><path fill="rgb(198,198,198)" stroke="rgb(198,198,198)" stroke-width="1" opacity="1" d="M 283 226 L 285 226.5 L 283 227.5 L 283 226 Z " /><path fill="rgb(198,198,198)" stroke="rgb(198,198,198)" stroke-width="1" opacity="1" d="M 302.5 226 L 301.5 228 L 302.5 226 Z " /><path fill="rgb(198,198,198)" stroke="rgb(198,198,198)" stroke-width="1" opacity="1" d="M 57.5 227 L 68 227.5 L 57.5 228 L 57.5 227 Z " /><path fill="rgb(198,198,198)" stroke="rgb(198,198,198)" stroke-width="1" opacity="1" d="M 228.5 227 L 221.5 235 L 228.5 227 Z " /><path fill="rgb(198,198,198)" stroke="rgb(198,198,198)" stroke-width="1" opacity="1" d="M 289.5 227 L 288.5 229 L 289.5 227 Z " /><path fill="rgb(198,198,198)" stroke="rgb(198,198,198)" stroke-width="1" opacity="1" d="M 295.5 227 L 290.5 233 L 295.5 227 Z " /><path fill="rgb(198,198,198)" stroke="rgb(198,198,198)" stroke-width="1" opacity="1" d="M 163.5 228 L 162.5 230 L 163.5 228 Z " /><path fill="rgb(198,198,198)" stroke="rgb(198,198,198)" stroke-width="1" opacity="1" d="M 300.5 229 L 298.5 232 L 300.5 229 Z " /><path fill="rgb(198,198,198)" stroke="rgb(198,198,198)" stroke-width="1" opacity="1" d="M 151.5 230 L 144 238.5 L 144.5 240 L 143 238.5 L 151.5 230 Z " /><path fill="rgb(198,198,198)" stroke="rgb(198,198,198)" stroke-width="1" opacity="1" d="M 232.5 230 L 229.5 234 L 232.5 230 Z " /><path fill="rgb(198,198,198)" stroke="rgb(198,198,198)" stroke-width="1" opacity="1" d="M 347.5 230 L 346.5 232 L 347.5 230 Z " /><path fill="rgb(198,198,198)" stroke="rgb(198,198,198)" stroke-width="1" opacity="1" d="M 158.5 231 L 157.5 233 L 158.5 231 Z " /><path fill="rgb(198,198,198)" stroke="rgb(198,198,198)" stroke-width="1" opacity="1" d="M 306.5 231 L 307 232.5 Q 304.3 233.8 304.5 238 L 303.5 234 L 300 236.5 L 304.5 232 L 306 232.5 L 306.5 231 Z " /><path fill="rgb(198,198,198)" stroke="rgb(198,198,198)" stroke-width="1" opacity="1" d="M 326 233 L 328 233.5 L 326 234.5 L 326 233 Z " /><path fill="rgb(198,198,198)" stroke="rgb(198,198,198)" stroke-width="1" opacity="1" d="M 342.5 233 L 341.5 235 L 342.5 233 Z " /><path fill="rgb(198,198,198)" stroke="rgb(198,198,198)" stroke-width="1" opacity="1" d="M 113.5 234 L 115 236.5 L 113 237 L 113.5 234 Z " /><path fill="rgb(198,198,198)" stroke="rgb(198,198,198)" stroke-width="1" opacity="1" d="M 153.5 234 L 152.5 236 L 153.5 234 Z " /><path fill="rgb(198,198,198)" stroke="rgb(198,198,198)" stroke-width="1" opacity="1" d="M 198.5 234 L 199 236 L 197 235.5 L 198.5 234 Z " /><path fill="rgb(198,198,198)" stroke="rgb(198,198,198)" stroke-width="1" opacity="1" d="M 289.5 234 L 287.5 237 L 289.5 234 Z " /><path fill="rgb(198,198,198)" stroke="rgb(198,198,198)" stroke-width="1" opacity="1" d="M 296.5 234 L 294.5 237 L 296.5 234 Z " /><path fill="rgb(198,198,198)" stroke="rgb(198,198,198)" stroke-width="1" opacity="1" d="M 339.5 235 L 337.5 238 L 339.5 235 Z " /><path fill="rgb(198,198,198)" stroke="rgb(198,198,198)" stroke-width="1" opacity="1" d="M 99.5 236 L 100 240.5 L 99 240.5 L 99.5 236 Z " /><path fill="rgb(198,198,198)" stroke="rgb(198,198,198)" stroke-width="1" opacity="1" d="M 107.5 236 L 108.5 238 L 107.5 236 Z " /><path fill="rgb(198,198,198)" stroke="rgb(198,198,198)" stroke-width="1" opacity="1" d="M 184.5 236 L 185 239 L 183 238.5 L 184.5 236 Z " /><path fill="rgb(198,198,198)" stroke="rgb(198,198,198)" stroke-width="1" opacity="1" d="M 227.5 236 L 224.5 240 L 227.5 236 Z " /><path fill="rgb(198,198,198)" stroke="rgb(198,198,198)" stroke-width="1" opacity="1" d="M 219.5 237 L 218.5 239 L 219.5 237 Z " /><path fill="rgb(198,198,198)" stroke="rgb(198,198,198)" stroke-width="1" opacity="1" d="M 114.5 238 L 116 238.5 L 113 240.5 L 114.5 238 Z " /><path fill="rgb(198,198,198)" stroke="rgb(198,198,198)" stroke-width="1" opacity="1" d="M 286.5 238 L 285.5 240 L 286.5 238 Z " /><path fill="rgb(198,198,198)" stroke="rgb(198,198,198)" stroke-width="1" opacity="1" d="M 328.5 238 L 329 240 L 326.5 241 L 328.5 238 Z " /><path fill="rgb(198,198,198)" stroke="rgb(198,198,198)" stroke-width="1" opacity="1" d="M 292.5 239 L 288.5 244 L 292.5 239 Z " /><path fill="rgb(198,198,198)" stroke="rgb(198,198,198)" stroke-width="1" opacity="1" d="M 334.5 239 L 325.5 249 L 334.5 239 Z " /><path fill="rgb(198,198,198)" stroke="rgb(198,198,198)" stroke-width="1" opacity="1" d="M 120.5 240 L 120.5 243 L 118 241.5 L 120.5 240 Z " /><path fill="rgb(198,198,198)" stroke="rgb(198,198,198)" stroke-width="1" opacity="1" d="M 177.5 240 L 180 240.5 L 177.5 241 L 177.5 240 Z " /><path fill="rgb(198,198,198)" stroke="rgb(198,198,198)" stroke-width="1" opacity="1" d="M 195.5 240 L 196 242 L 194 241.5 L 195.5 240 Z " /><path fill="rgb(198,198,198)" stroke="rgb(198,198,198)" stroke-width="1" opacity="1" d="M 217.5 240 L 216.5 242 L 217.5 240 Z " /><path fill="rgb(198,198,198)" stroke="rgb(198,198,198)" stroke-width="1" opacity="1" d="M 182.5 241 L 184.5 244 L 182.5 241 Z " /><path fill="rgb(198,198,198)" stroke="rgb(198,198,198)" stroke-width="1" opacity="1" d="M 163.5 242 Q 166.1 241.2 165 244.5 L 164 244.5 L 163.5 242 Z " /><path fill="rgb(198,198,198)" stroke="rgb(198,198,198)" stroke-width="1" opacity="1" d="M 172.5 242 L 168.5 247 L 172.5 242 Z " /><path fill="rgb(198,198,198)" stroke="rgb(198,198,198)" stroke-width="1" opacity="1" d="M 222.5 242 L 219.5 246 L 222.5 242 Z " /><path fill="rgb(198,198,198)" stroke="rgb(198,198,198)" stroke-width="1" opacity="1" d="M 110.5 243 L 111.5 245 L 110.5 243 Z " /><path fill="rgb(198,198,198)" stroke="rgb(198,198,198)" stroke-width="1" opacity="1" d="M 321.5 243 L 320.5 245 L 321.5 243 Z " /><path fill="rgb(198,198,198)" stroke="rgb(198,198,198)" stroke-width="1" opacity="1" d="M 105.5 246 L 106 248.5 L 104 247.5 L 105.5 246 Z " /><path fill="rgb(198,198,198)" stroke="rgb(198,198,198)" stroke-width="1" opacity="1" d="M 256.5 246 L 263 246.5 L 256.5 247 L 256.5 246 Z " /><path fill="rgb(198,198,198)" stroke="rgb(198,198,198)" stroke-width="1" opacity="1" d="M 159.5 247 L 161 249.5 L 159 248.5 L 159.5 247 Z " /><path fill="rgb(198,198,198)" stroke="rgb(198,198,198)" stroke-width="1" opacity="1" d="M 264.5 247 L 266.5 250 L 264.5 247 Z " /><path fill="rgb(198,198,198)" stroke="rgb(198,198,198)" stroke-width="1" opacity="1" d="M 285.5 247 L 283.5 250 L 285.5 247 Z " /><path fill="rgb(198,198,198)" stroke="rgb(198,198,198)" stroke-width="1" opacity="1" d="M 186.5 248 L 187 253.5 L 186 253.5 L 186.5 248 Z " /><path fill="rgb(198,198,198)" stroke="rgb(198,198,198)" stroke-width="1" opacity="1" d="M 216.5 249 L 211.5 255 L 211 252.5 Q 213.8 254.4 216.5 249 Z " /><path fill="rgb(198,198,198)" stroke="rgb(198,198,198)" stroke-width="1" opacity="1" d="M 248.5 251 L 246.5 254 L 248.5 251 Z " /><path fill="rgb(198,198,198)" stroke="rgb(198,198,198)" stroke-width="1" opacity="1" d="M 323.5 251 L 321.5 254 L 323.5 251 Z " /><path fill="rgb(198,198,198)" stroke="rgb(198,198,198)" stroke-width="1" opacity="1" d="M 123 253 Q 126 252 125 255 Q 122 256 123 253 Z " /><path fill="rgb(198,198,198)" stroke="rgb(198,198,198)" stroke-width="1" opacity="1" d="M 283.5 253 L 284 255 L 282 254.5 L 283.5 253 Z " /><path fill="rgb(198,198,198)" stroke="rgb(198,198,198)" stroke-width="1" opacity="1" d="M 165.5 254 L 166 256.5 L 165 256.5 L 165.5 254 Z " /><path fill="rgb(198,198,198)" stroke="rgb(198,198,198)" stroke-width="1" opacity="1" d="M 95.5 255 L 96 260.5 L 95 260.5 L 95.5 255 Z " /><path fill="rgb(198,198,198)" stroke="rgb(198,198,198)" stroke-width="1" opacity="1" d="M 267.5 255 L 268 257.5 L 267 257.5 L 267.5 255 Z " /><path fill="rgb(198,198,198)" stroke="rgb(198,198,198)" stroke-width="1" opacity="1" d="M 320.5 255 L 317.5 259 L 320.5 255 Z " /><path fill="rgb(198,198,198)" stroke="rgb(198,198,198)" stroke-width="1" opacity="1" d="M 106 256 L 109 256.5 L 106.5 258 L 106 256 Z " /><path fill="rgb(198,198,198)" stroke="rgb(198,198,198)" stroke-width="1" opacity="1" d="M 316.5 260 L 314.5 263 L 316.5 260 Z " /><path fill="rgb(198,198,198)" stroke="rgb(198,198,198)" stroke-width="1" opacity="1" d="M 101 262 L 103 262.5 L 101 263.5 L 101 262 Z " /><path fill="rgb(198,198,198)" stroke="rgb(198,198,198)" stroke-width="1" opacity="1" d="M 312.5 265 L 302.5 276 L 312.5 265 Z " /><path fill="rgb(198,198,198)" stroke="rgb(198,198,198)" stroke-width="1" opacity="1" d="M 114 266 Q 118.1 264.7 117 268 Q 112.9 269.3 114 266 Z " /><path fill="rgb(198,198,198)" stroke="rgb(198,198,198)" stroke-width="1" opacity="1" d="M 148.5 266 L 149 267.5 L 145.5 269 L 145.5 268 L 148.5 266 Z " /><path fill="rgb(198,198,198)" stroke="rgb(198,198,198)" stroke-width="1" opacity="1" d="M 239.5 268 L 240 269.5 L 238 270.5 L 239.5 268 Z " /><path fill="rgb(198,198,198)" stroke="rgb(198,198,198)" stroke-width="1" opacity="1" d="M 262.5 268 L 263 273.5 L 262 273.5 L 262.5 268 Z " /><path fill="rgb(198,198,198)" stroke="rgb(198,198,198)" stroke-width="1" opacity="1" d="M 99.5 269 L 104.5 275 L 99.5 269 Z " /><path fill="rgb(198,198,198)" stroke="rgb(198,198,198)" stroke-width="1" opacity="1" d="M 151.5 272 L 152.5 274 Q 149.7 274.7 151.5 272 Z " /><path fill="rgb(198,198,198)" stroke="rgb(198,198,198)" stroke-width="1" opacity="1" d="M 179.5 272 L 180 278.5 L 179 278.5 L 179.5 272 Z " /><path fill="rgb(198,198,198)" stroke="rgb(198,198,198)" stroke-width="1" opacity="1" d="M 237.5 272 L 236.5 274 L 237.5 272 Z " /><path fill="rgb(198,198,198)" stroke="rgb(198,198,198)" stroke-width="1" opacity="1" d="M 140.5 274 L 143 275.5 L 141.5 276 L 140.5 274 Z " /><path fill="rgb(198,198,198)" stroke="rgb(198,198,198)" stroke-width="1" opacity="1" d="M 106.5 275 L 107.5 277 L 106.5 275 Z " /><path fill="rgb(198,198,198)" stroke="rgb(198,198,198)" stroke-width="1" opacity="1" d="M 235.5 275 L 228.5 283 L 235.5 275 Z " /><path fill="rgb(198,198,198)" stroke="rgb(198,198,198)" stroke-width="1" opacity="1" d="M 263.5 275 L 264.5 277 L 263.5 275 Z " /><path fill="rgb(198,198,198)" stroke="rgb(198,198,198)" stroke-width="1" opacity="1" d="M 135 276 L 137 276.5 L 134.5 280 L 133 279.5 L 135 276 Z " /><path fill="rgb(198,198,198)" stroke="rgb(198,198,198)" stroke-width="1" opacity="1" d="M 297.5 278 L 296.5 280 L 297.5 278 Z " /><path fill="rgb(198,198,198)" stroke="rgb(198,198,198)" stroke-width="1" opacity="1" d="M 154.5 279 L 152.5 282 L 154.5 279 Z " /><path fill="rgb(198,198,198)" stroke="rgb(198,198,198)" stroke-width="1" opacity="1" d="M 267.5 279 L 271 281.5 L 269.5 282 L 267.5 279 Z " /><path fill="rgb(198,198,198)" stroke="rgb(198,198,198)" stroke-width="1" opacity="1" d="M 120.5 280 L 120.5 283 L 118 281.5 L 120.5 280 Z " /><path fill="rgb(198,198,198)" stroke="rgb(198,198,198)" stroke-width="1" opacity="1" d="M 130.5 280 L 129.5 282 L 130.5 280 Z " /><path fill="rgb(198,198,198)" stroke="rgb(198,198,198)" stroke-width="1" opacity="1" d="M 122.5 281 Q 124.8 280.3 124 282.5 L 122.5 281 Z " /><path fill="rgb(198,198,198)" stroke="rgb(198,198,198)" stroke-width="1" opacity="1" d="M 181.5 282 L 183.5 285 L 181.5 282 Z " /><path fill="rgb(198,198,198)" stroke="rgb(198,198,198)" stroke-width="1" opacity="1" d="M 226.5 283 L 225.5 285 L 226.5 283 Z " /><path fill="rgb(198,198,198)" stroke="rgb(198,198,198)" stroke-width="1" opacity="1" d="M 274.5 283 L 277 283.5 L 274.5 284 L 274.5 283 Z " /><path fill="rgb(198,198,198)" stroke="rgb(198,198,198)" stroke-width="1" opacity="1" d="M 128.5 284 L 132 284.5 L 128.5 285 L 128.5 284 Z " /><path fill="rgb(198,198,198)" stroke="rgb(198,198,198)" stroke-width="1" opacity="1" d="M 185.5 285 L 186.5 287 L 185.5 285 Z " /><path fill="rgb(198,198,198)" stroke="rgb(198,198,198)" stroke-width="1" opacity="1" d="M 199.5 290 L 210 290.5 L 199.5 291 L 199.5 290 Z " /><path fill="rgb(255,255,255)" stroke="rgb(255,255,255)" stroke-width="1" opacity="1" d="M 0 0 L 442 0 L 442 388 L 0 388 L 0 0 Z M 204 97 L 201 98 Q 194 102 192 111 Q 193 115 191 117 L 191 134 L 187 143 L 181 147 L 174 147 L 167 140 L 163 123 L 157 113 Q 150 104 138 100 L 124 100 L 112 106 L 104 115 L 100 124 Q 101 128 99 130 L 100 132 Q 98 137 102 136 L 101 140 L 102 142 Q 101 144 104 143 L 102 146 L 103 147 Q 103 154 99 156 L 90 156 L 74 151 Q 59 150 52 157 L 40 171 L 34 190 Q 33 209 41 219 Q 47 225 58 228 L 74 227 L 80 224 Q 81 227 86 226 L 87 224 L 87 226 L 94 228 L 99 235 L 99 244 L 95 256 Q 95 265 99 270 Q 106 278 119 282 L 121 281 L 129 285 L 146 285 L 153 282 L 157 278 L 156 277 L 159 276 L 164 265 L 168 248 L 176 241 L 182 241 L 186 247 L 186 256 L 179 273 Q 178 280 181 283 L 189 288 L 200 291 Q 219 292 229 283 L 240 270 Q 243 258 249 251 Q 253 245 264 247 L 268 254 L 267 259 L 262 269 L 263 276 Q 267 282 275 284 L 287 284 L 303 276 Q 315 265 324 251 Q 337 234 358 226 L 372 222 L 398 221 L 407 218 L 409 214 L 403 210 L 388 210 L 364 215 Q 343 215 334 205 L 330 206 L 331 204 L 321 192 L 311 165 L 303 150 Q 300 149 301 153 Q 303 154 301 155 L 297 154 L 301 149 Q 296 142 287 140 Q 277 139 273 143 L 259 155 L 251 155 L 244 147 L 239 126 L 230 109 Q 223 97 204 97 Z " /><path fill="rgb(255,255,255)" stroke="rgb(255,255,255)" stroke-width="1" opacity="1" d="M 125.5 159 L 170.5 210 L 208 215 L 209.5 212 L 211.5 216 L 236.5 218 L 235.5 216 L 230.5 213 L 229 213.5 L 229 211.5 L 224.5 207 Q 222.3 207.8 223 205.5 Q 216.1 200.5 213 193 L 211 193 Q 212.1 195.7 209.5 195 L 204.5 194 Q 202.3 194.8 203 192.5 Q 204.3 189.7 205.5 192 L 209.5 191 L 211 191.5 L 209.5 189 Q 206.5 189.9 208 185.5 L 202 172.5 L 204 173.5 Q 220 198 240.5 218 Q 244.3 220.7 252.5 219 L 253.5 220 L 307 220 Q 308.3 216.7 303.5 218 Q 293.5 213 287 204.5 Q 280.3 196.7 277 185.5 L 282 189.5 L 304.5 216 L 312 219.5 Q 304.7 219.2 303 224.5 Q 294 239.5 281.5 251 L 282 249.5 L 282 246.5 L 285 240.5 L 297.5 226 L 303 222.5 Q 303.8 220.3 301.5 221 L 300.5 222 L 283.5 223 L 282.5 224 L 237.5 224 L 234 227.5 L 212.5 253 L 212 251.5 Q 217.9 235.4 230.5 226 L 233 224.5 L 232.5 223 L 222.5 223 L 221.5 222 L 203.5 221 L 186.5 218 L 178.5 218 Q 162.6 230.6 143.5 240 L 153.5 229 Q 162 221.1 174 218 Q 175.1 214.5 167.5 216 L 153.5 213 L 151 214 Q 152.3 210.7 147.5 212 L 111.5 202 L 89.5 193 L 82 188.5 L 83.5 189 L 120.5 201 L 148.5 207 L 164.5 209 L 162.5 206 L 145 189.5 L 131 170.5 L 125.5 159 Z " /><path fill="rgb(255,255,255)" stroke="rgb(255,255,255)" stroke-width="1" opacity="1" d="M 306.5 160 L 305.5 162 L 306.5 160 Z " /><path fill="rgb(255,255,255)" stroke="rgb(255,255,255)" stroke-width="1" opacity="1" d="M 217.5 161 L 220 161.5 Q 217.9 164.8 217.5 161 Z " /><path fill="rgb(255,255,255)" stroke="rgb(255,255,255)" stroke-width="1" opacity="1" d="M 255.5 162 L 258 163.5 L 255.5 165 Q 252.5 163.5 255.5 162 Z " /><path fill="rgb(255,255,255)" stroke="rgb(255,255,255)" stroke-width="1" opacity="1" d="M 297.5 162 L 298.5 164 L 297.5 162 Z " /><path fill="rgb(255,255,255)" stroke="rgb(255,255,255)" stroke-width="1" opacity="1" d="M 230.5 163 L 231 166 L 229 165.5 L 230.5 163 Z " /><path fill="rgb(255,255,255)" stroke="rgb(255,255,255)" stroke-width="1" opacity="1" d="M 203.5 164 L 205.5 167 L 203.5 168 L 200.5 167 L 197.5 168 L 199.5 165 L 202.5 166 L 203.5 164 Z " /><path fill="rgb(255,255,255)" stroke="rgb(255,255,255)" stroke-width="1" opacity="1" d="M 178 167 L 181 167.5 L 178 169 L 178 167 Z " /><path fill="rgb(255,255,255)" stroke="rgb(255,255,255)" stroke-width="1" opacity="1" d="M 307.5 167 L 308 169 L 306 168.5 L 307.5 167 Z " /><path fill="rgb(255,255,255)" stroke="rgb(255,255,255)" stroke-width="1" opacity="1" d="M 192 171 Q 195.3 169.9 194 174 Q 190.7 175.1 192 171 Z " /><path fill="rgb(255,255,255)" stroke="rgb(255,255,255)" stroke-width="1" opacity="1" d="M 162 175 L 164 175.5 L 162 176.5 L 162 175 Z " /><path fill="rgb(255,255,255)" stroke="rgb(255,255,255)" stroke-width="1" opacity="1" d="M 220.5 180 L 221 182.5 L 218 184 L 217 181.5 L 220.5 180 Z " /><path fill="rgb(255,255,255)" stroke="rgb(255,255,255)" stroke-width="1" opacity="1" d="M 249.5 180 L 252 183.5 L 249 184 L 248.5 182 L 247 182.5 L 249.5 180 Z " /><path fill="rgb(255,255,255)" stroke="rgb(255,255,255)" stroke-width="1" opacity="1" d="M 121.5 182 Q 125.7 180.9 124 185 L 119 184.5 L 121.5 182 Z " /><path fill="rgb(255,255,255)" stroke="rgb(255,255,255)" stroke-width="1" opacity="1" d="M 233.5 186 Q 237 187.3 236 192 L 232 189.5 L 233.5 186 Z " /><path fill="rgb(255,255,255)" stroke="rgb(255,255,255)" stroke-width="1" opacity="1" d="M 259 190 L 261 190.5 L 259 191.5 L 259 190 Z " /><path fill="rgb(255,255,255)" stroke="rgb(255,255,255)" stroke-width="1" opacity="1" d="M 188.5 194 L 189 198 L 186 196.5 L 188.5 194 Z " /><path fill="rgb(255,255,255)" stroke="rgb(255,255,255)" stroke-width="1" opacity="1" d="M 261.5 195 L 262 198 Q 259.3 199.1 260 196.5 L 261.5 195 Z " /><path fill="rgb(255,255,255)" stroke="rgb(255,255,255)" stroke-width="1" opacity="1" d="M 242.5 198 Q 245.1 197.3 244 200 L 239 199.5 L 242.5 198 Z " /><path fill="rgb(255,255,255)" stroke="rgb(255,255,255)" stroke-width="1" opacity="1" d="M 101.5 201 L 100.5 203 L 101.5 201 Z " /><path fill="rgb(255,255,255)" stroke="rgb(255,255,255)" stroke-width="1" opacity="1" d="M 196.5 202 L 195.5 204 L 196.5 202 Z " /><path fill="rgb(255,255,255)" stroke="rgb(255,255,255)" stroke-width="1" opacity="1" d="M 238.5 202 L 239 204.5 L 237 203.5 L 238.5 202 Z " /><path fill="rgb(255,255,255)" stroke="rgb(255,255,255)" stroke-width="1" opacity="1" d="M 215.5 208 Q 218.8 206.9 218 209.5 Q 220.3 210.8 217.5 212 L 215.5 208 Z " /><path fill="rgb(255,255,255)" stroke="rgb(255,255,255)" stroke-width="1" opacity="1" d="M 331.5 212 L 332 213.5 L 329.5 215 L 331.5 212 Z " /><path fill="rgb(255,255,255)" stroke="rgb(255,255,255)" stroke-width="1" opacity="1" d="M 152 224 L 154 224.5 L 153 227 L 151 226.5 L 152 224 Z " /><path fill="rgb(255,255,255)" stroke="rgb(255,255,255)" stroke-width="1" opacity="1" d="M 305.5 231 L 306 232.5 Q 303 233.8 304 238 L 301.5 239 L 300 237.5 L 305 232.5 L 305.5 231 Z " /><path fill="rgb(255,255,255)" stroke="rgb(255,255,255)" stroke-width="1" opacity="1" d="M 162 243 Q 165.3 241.9 164 246 Q 160.7 247.1 162 243 Z " /><path fill="rgb(255,255,255)" stroke="rgb(255,255,255)" stroke-width="1" opacity="1" d="M 160.5 248 L 161.5 250 L 160.5 248 Z " /><path fill="rgb(115,115,115)" stroke="rgb(115,115,115)" stroke-width="1" opacity="1" d="M 205.5 97 Q 222.7 98.3 230 109.5 L 237 121.5 L 244 147.5 L 249.5 155 L 256.5 156 L 261.5 154 Q 267.5 145.5 277.5 141 L 287.5 141 Q 298.4 144.1 304 152.5 L 307 158.5 L 305 162.5 L 306 162.5 L 307.5 160 L 311 165.5 L 321 192.5 L 330 203.5 Q 326.3 205.3 329.5 207 L 332.5 205 L 335.5 208 L 348.5 214 L 367.5 215 L 384.5 211 L 399.5 210 L 404.5 211 L 408 213.5 Q 408.5 217.5 405.5 218 L 394.5 221 L 372.5 222 Q 371 219.5 369.5 223 L 358.5 225 L 347.5 230 Q 334.4 237.4 325 248.5 Q 314.8 264.8 300.5 277 L 288.5 283 L 277.5 284 Q 269.7 282.3 265 277.5 Q 261.4 274.6 263 266.5 L 268 257.5 L 268 251.5 L 264.5 247 L 256.5 246 Q 249.3 247.8 246 253.5 L 238 271.5 L 227.5 283 Q 221.1 288.1 211.5 290 L 196.5 290 Q 186.3 288.3 181 281.5 Q 178.7 278.3 180 271.5 L 186 257.5 L 187 248.5 L 182.5 241 L 177.5 240 Q 171 241.5 168 246.5 L 162 268.5 L 157.5 276 L 156 275.5 Q 157.5 279.9 154.5 279 Q 148.5 287 132.5 285 L 124 283 Q 125.3 280 121.5 281 L 119.5 281 Q 105.1 277.9 98 267.5 Q 94.3 263.2 96 253.5 Q 99.8 246.8 100 236.5 Q 98.5 230 93.5 227 L 85.5 224 L 80 225 L 79.5 223 L 76.5 226 L 55.5 227 Q 45.9 224.6 41 217.5 L 35 203.5 L 35 186 L 37 185.5 L 36 182.5 Q 40.8 165.3 53.5 156 Q 61.1 150.1 76.5 152 L 90.5 157 L 96.5 157 L 102 153.5 L 103 145.5 L 105 143.5 L 102 141.5 L 101 139.5 L 103 139 L 103 136 L 100 135.5 L 100 126.5 Q 103.1 112.1 113.5 105 L 125.5 100 L 134.5 100 Q 150 103.5 158 114.5 L 163 123.5 L 167 140.5 L 172.5 147 L 179.5 148 L 189 140.5 L 192 129.5 L 192 112.5 Q 193.7 104.7 198.5 100 L 205.5 97 Z M 108 134 L 106 136 L 108 136 L 108 134 Z M 295 147 L 293 149 Q 292 151 295 150 L 295 147 Z M 211 149 L 209 151 L 212 151 Q 213 148 211 149 Z M 300 150 L 297 153 L 299 156 L 302 155 L 301 152 Q 302 149 300 150 Z M 266 153 L 266 154 L 268 154 L 266 153 Z M 125 157 L 124 159 L 131 172 L 147 193 L 161 205 L 164 209 L 116 199 L 90 191 L 82 187 L 79 188 Q 103 202 135 209 Q 136 212 138 210 L 149 212 L 150 215 L 154 214 L 159 214 L 173 218 Q 160 222 152 230 L 143 239 L 143 240 Q 163 231 180 218 L 198 220 L 199 221 L 207 221 L 208 222 L 227 223 L 232 225 L 229 227 Q 217 237 211 253 L 212 255 L 233 231 L 237 224 L 247 224 L 248 225 L 276 225 L 277 224 L 290 224 L 298 222 L 302 223 L 296 227 Q 286 235 281 249 L 282 251 L 284 250 L 301 230 L 306 221 L 319 219 L 319 218 Q 314 217 313 219 L 306 216 Q 292 203 281 188 L 277 185 Q 280 198 288 207 L 299 216 L 305 219 L 296 219 L 295 220 L 247 219 L 242 218 L 236 214 L 220 194 L 220 192 Q 219 189 218 191 L 204 173 L 202 172 L 203 175 Q 204 177 202 176 L 201 178 L 204 177 L 207 186 L 209 189 Q 211 188 210 191 Q 204 190 202 194 L 204 196 L 213 194 L 215 198 Q 214 201 217 200 L 228 212 L 228 214 Q 232 213 235 216 L 236 218 L 212 215 L 210 212 Q 206 211 207 214 L 192 213 L 170 209 L 125 157 Z M 261 159 L 254 164 L 255 166 L 259 165 Q 257 163 261 161 L 261 159 Z M 217 160 L 217 163 L 221 162 L 221 160 L 217 160 Z M 212 161 Q 211 164 214 163 Q 215 160 212 161 Z M 232 161 L 229 167 L 232 166 L 232 161 Z M 298 161 L 297 164 L 299 165 L 298 161 Z M 204 163 L 203 165 L 202 164 L 200 165 Q 197 164 198 167 Q 196 168 199 169 L 201 168 L 203 168 L 207 168 L 204 163 Z M 178 166 Q 177 171 181 169 Q 183 165 178 166 Z M 308 166 L 307 168 L 304 169 L 308 170 L 308 166 Z M 81 167 Q 80 170 83 169 Q 84 166 81 167 Z M 207 169 L 205 173 L 207 172 L 207 169 Z M 191 171 L 192 175 L 194 174 Q 196 175 195 173 L 191 171 Z M 221 173 L 219 176 L 221 175 L 221 173 Z M 164 174 L 162 176 Q 161 178 164 177 L 164 174 Z M 188 175 L 187 177 L 189 178 L 188 175 Z M 222 175 L 221 178 L 222 178 L 222 175 Z M 133 177 L 132 180 L 133 180 L 133 177 Z M 221 179 L 218 181 L 218 184 Q 221 185 222 183 L 221 179 Z M 235 179 Q 234 182 237 181 Q 238 178 235 179 Z M 251 179 L 246 181 Q 245 184 249 183 Q 250 187 252 184 L 251 182 L 252 180 L 251 179 Z M 122 182 L 120 183 Q 117 185 120 186 Q 124 187 125 184 Q 126 180 122 182 Z M 230 186 L 230 187 Q 234 186 232 191 L 236 192 L 237 190 L 236 188 Q 235 185 230 186 Z M 138 187 L 140 189 L 141 189 L 138 187 Z M 260 189 L 258 191 L 259 193 L 261 192 L 260 189 Z M 222 191 L 220 193 L 222 193 L 222 191 Z M 114 192 Q 112 195 115 194 L 114 192 Z M 188 194 L 186 196 Q 185 200 190 198 Q 192 193 188 194 Z M 261 195 L 259 198 L 262 199 L 262 195 L 261 195 Z M 243 197 L 242 198 Q 237 197 239 201 Q 244 202 245 199 L 243 197 Z M 270 197 L 270 199 L 272 198 L 270 197 Z M 103 200 L 102 201 Q 99 200 100 203 L 103 202 L 103 200 Z M 46 201 L 44 204 L 46 203 L 46 201 Z M 239 201 Q 234 204 239 206 L 240 204 L 239 201 Z M 195 202 Q 194 205 197 204 Q 198 201 195 202 Z M 39 206 Q 37 209 40 208 L 39 206 Z M 43 207 Q 42 210 45 209 Q 46 206 43 207 Z M 214 207 L 216 212 Q 220 214 219 210 Q 218 206 214 207 Z M 332 211 L 329 214 Q 328 217 332 215 L 333 213 Q 334 210 332 211 Z M 118 219 Q 117 222 120 221 Q 121 218 118 219 Z M 130 219 Q 129 223 132 222 Q 133 218 130 219 Z M 326 219 L 327 220 L 328 221 Q 329 218 326 219 Z M 330 220 L 328 222 L 330 222 L 330 220 Z M 119 223 L 117 225 L 119 225 L 119 223 Z M 154 223 L 151 227 L 154 226 L 154 223 Z M 283 226 L 283 228 L 285 227 L 283 226 Z M 288 227 L 288 229 L 290 228 L 288 227 Z M 306 231 L 300 238 L 300 239 L 305 238 Q 304 234 307 233 Q 308 230 306 231 Z M 326 233 L 326 235 L 328 234 L 326 233 Z M 113 234 L 113 236 Q 112 238 115 237 L 114 236 Q 115 233 113 234 Z M 197 234 Q 196 237 199 236 Q 200 233 197 234 Z M 184 235 L 184 238 L 184 240 Q 183 242 186 241 L 185 240 L 186 236 L 184 235 Z M 115 238 L 113 241 L 116 239 L 115 238 Z M 329 238 L 327 240 L 329 240 L 329 238 Z M 121 240 L 118 242 L 121 243 L 121 240 Z M 194 240 L 196 242 Q 197 239 194 240 Z M 113 242 L 110 244 Q 112 247 114 243 L 113 242 Z M 164 242 L 161 243 L 164 247 L 165 245 Q 166 241 164 242 Z M 101 243 L 101 244 L 105 244 L 101 243 Z M 106 246 L 104 248 L 106 249 L 106 246 Z M 160 247 L 159 249 L 162 250 L 160 247 Z M 123 253 Q 122 256 125 255 Q 126 252 123 253 Z M 284 253 L 282 255 L 284 255 L 284 253 Z M 106 256 L 106 258 L 109 257 L 106 256 Z M 148 261 L 148 262 L 150 262 L 148 261 Z M 101 262 L 101 264 L 103 263 L 101 262 Z M 114 266 Q 113 269 117 268 Q 118 265 114 266 Z M 149 266 L 146 268 L 146 269 L 149 268 L 149 266 Z M 152 272 Q 150 275 153 274 L 152 272 Z M 141 274 L 142 276 L 143 276 L 141 274 Z M 135 276 L 133 280 L 135 280 L 137 277 L 135 276 Z " /></svg>