<svg width="416" height="358" version="1.1" xmlns="http://www.w3.org/2000/svg" desc="Created with imagetracer.js version 1.2.6" ><path fill="rgb(220,220,220)" stroke="rgb(220,220,220)" stroke-width="1" opacity="1" d="M 340.5 83 L 344 83.5 L 340.5 84 L 340.5 83 Z " /><path fill="rgb(220,220,220)" stroke="rgb(220,220,220)" stroke-width="1" opacity="1" d="M 331.5 84 L 334 84.5 L 331.5 85 L 331.5 84 Z " /><path fill="rgb(220,220,220)" stroke="rgb(220,220,220)" stroke-width="1" opacity="1" d="M 124.5 88 L 127 88.5 L 124.5 89 L 124.5 88 Z " /><path fill="rgb(220,220,220)" stroke="rgb(220,220,220)" stroke-width="1" opacity="1" d="M 335.5 96 L 338 96.5 L 335.5 97 L 335.5 96 Z " /><path fill="rgb(220,220,220)" stroke="rgb(220,220,220)" stroke-width="1" opacity="1" d="M 188.5 105 L 189.5 107 L 188.5 105 Z " /><path fill="rgb(220,220,220)" stroke="rgb(220,220,220)" stroke-width="1" opacity="1" d="M 230.5 109 L 238 109.5 L 230.5 110 L 230.5 109 Z " /><path fill="rgb(220,220,220)" stroke="rgb(220,220,220)" stroke-width="1" opacity="1" d="M 281.5 116 L 282.5 118 L 281.5 116 Z " /><path fill="rgb(220,220,220)" stroke="rgb(220,220,220)" stroke-width="1" opacity="1" d="M 230.5 119 L 234 119.5 L 230.5 120 L 230.5 119 Z " /><path fill="rgb(220,220,220)" stroke="rgb(220,220,220)" stroke-width="1" opacity="1" d="M 195.5 120 L 194.5 122 L 195.5 120 Z " /><path fill="rgb(220,220,220)" stroke="rgb(220,220,220)" stroke-width="1" opacity="1" d="M 300.5 127 L 303 127.5 L 300.5 128 L 300.5 127 Z " /><path fill="rgb(220,220,220)" stroke="rgb(220,220,220)" stroke-width="1" opacity="1" d="M 127.5 133 L 130 133.5 L 127.5 134 L 127.5 133 Z " /><path fill="rgb(220,220,220)" stroke="rgb(220,220,220)" stroke-width="1" opacity="1" d="M 167.5 136 L 180 136.5 L 167.5 137 L 167.5 136 Z " /><path fill="rgb(220,220,220)" stroke="rgb(220,220,220)" stroke-width="1" opacity="1" d="M 192.5 137 L 191.5 139 L 192.5 137 Z " /><path fill="rgb(220,220,220)" stroke="rgb(220,220,220)" stroke-width="1" opacity="1" d="M 271.5 139 L 266.5 145 L 271.5 139 Z " /><path fill="rgb(220,220,220)" stroke="rgb(220,220,220)" stroke-width="1" opacity="1" d="M 313.5 144 L 313.5 147 Q 310.5 145.5 313.5 144 Z " /><path fill="rgb(220,220,220)" stroke="rgb(220,220,220)" stroke-width="1" opacity="1" d="M 340.5 147 L 341.5 149 L 339 148.5 L 340.5 147 Z " /><path fill="rgb(220,220,220)" stroke="rgb(220,220,220)" stroke-width="1" opacity="1" d="M 205.5 149 L 206.5 151 L 205.5 149 Z " /><path fill="rgb(220,220,220)" stroke="rgb(220,220,220)" stroke-width="1" opacity="1" d="M 260.5 149 L 258.5 152 L 260.5 149 Z " /><path fill="rgb(220,220,220)" stroke="rgb(220,220,220)" stroke-width="1" opacity="1" d="M 95.5 166 L 96 168.5 L 95 168.5 L 95.5 166 Z " /><path fill="rgb(220,220,220)" stroke="rgb(220,220,220)" stroke-width="1" opacity="1" d="M 137.5 166 L 138 168.5 L 137 168.5 L 137.5 166 Z " /><path fill="rgb(220,220,220)" stroke="rgb(220,220,220)" stroke-width="1" opacity="1" d="M 124.5 168 L 126 170.5 L 125 170.5 L 124.5 168 Z " /><path fill="rgb(220,220,220)" stroke="rgb(220,220,220)" stroke-width="1" opacity="1" d="M 227.5 169 L 228.5 171 L 227.5 169 Z " /><path fill="rgb(220,220,220)" stroke="rgb(220,220,220)" stroke-width="1" opacity="1" d="M 338.5 169 L 337.5 171 L 338.5 169 Z " /><path fill="rgb(220,220,220)" stroke="rgb(220,220,220)" stroke-width="1" opacity="1" d="M 185 171 L 187 171.5 L 185 172.5 L 185 171 Z " /><path fill="rgb(220,220,220)" stroke="rgb(220,220,220)" stroke-width="1" opacity="1" d="M 334.5 172 L 333.5 174 L 334.5 172 Z " /><path fill="rgb(220,220,220)" stroke="rgb(220,220,220)" stroke-width="1" opacity="1" d="M 98.5 175 L 100.5 178 L 98.5 175 Z " /><path fill="rgb(220,220,220)" stroke="rgb(220,220,220)" stroke-width="1" opacity="1" d="M 243.5 175 L 244 179.5 L 243 179.5 L 243.5 175 Z " /><path fill="rgb(220,220,220)" stroke="rgb(220,220,220)" stroke-width="1" opacity="1" d="M 185.5 176 L 188 177.5 L 185 178 L 185.5 176 Z " /><path fill="rgb(220,220,220)" stroke="rgb(220,220,220)" stroke-width="1" opacity="1" d="M 93.5 185 L 94.5 187 L 93.5 185 Z " /><path fill="rgb(220,220,220)" stroke="rgb(220,220,220)" stroke-width="1" opacity="1" d="M 224.5 186 L 227 186.5 L 224.5 187 L 224.5 186 Z " /><path fill="rgb(220,220,220)" stroke="rgb(220,220,220)" stroke-width="1" opacity="1" d="M 225.5 191 L 224.5 193 L 225.5 191 Z " /><path fill="rgb(220,220,220)" stroke="rgb(220,220,220)" stroke-width="1" opacity="1" d="M 350.5 196 L 351 198.5 L 350 198.5 L 350.5 196 Z " /><path fill="rgb(220,220,220)" stroke="rgb(220,220,220)" stroke-width="1" opacity="1" d="M 239.5 199 L 240 202.5 L 239 202.5 L 239.5 199 Z " /><path fill="rgb(220,220,220)" stroke="rgb(220,220,220)" stroke-width="1" opacity="1" d="M 97 203 L 99 203.5 L 97 204.5 L 97 203 Z " /><path fill="rgb(220,220,220)" stroke="rgb(220,220,220)" stroke-width="1" opacity="1" d="M 107.5 203 L 108.5 205 L 107.5 203 Z " /><path fill="rgb(220,220,220)" stroke="rgb(220,220,220)" stroke-width="1" opacity="1" d="M 294.5 209 L 297 209.5 Q 294.9 212.8 294.5 209 Z " /><path fill="rgb(220,220,220)" stroke="rgb(220,220,220)" stroke-width="1" opacity="1" d="M 338.5 223 L 342 223.5 L 338.5 224 L 338.5 223 Z " /><path fill="rgb(220,220,220)" stroke="rgb(220,220,220)" stroke-width="1" opacity="1" d="M 212.5 227 L 218 227.5 L 212.5 228 L 212.5 227 Z " /><path fill="rgb(220,220,220)" stroke="rgb(220,220,220)" stroke-width="1" opacity="1" d="M 278.5 238 L 279.5 240 L 278.5 238 Z " /><path fill="rgb(220,220,220)" stroke="rgb(220,220,220)" stroke-width="1" opacity="1" d="M 190.5 240 L 191 243.5 L 190 243.5 L 190.5 240 Z " /><path fill="rgb(220,220,220)" stroke="rgb(220,220,220)" stroke-width="1" opacity="1" d="M 107.5 242 Q 109.8 241.3 109 243.5 L 107.5 242 Z " /><path fill="rgb(220,220,220)" stroke="rgb(220,220,220)" stroke-width="1" opacity="1" d="M 72.5 244 L 73 247.5 L 72 247.5 L 72.5 244 Z " /><path fill="rgb(220,220,220)" stroke="rgb(220,220,220)" stroke-width="1" opacity="1" d="M 109.5 248 L 110.5 250 L 109.5 248 Z " /><path fill="rgb(220,220,220)" stroke="rgb(220,220,220)" stroke-width="1" opacity="1" d="M 72.5 255 L 73 258.5 L 72 258.5 L 72.5 255 Z " /><path fill="rgb(220,220,220)" stroke="rgb(220,220,220)" stroke-width="1" opacity="1" d="M 182.5 291 L 179.5 295 L 182.5 291 Z " /><path fill="rgb(220,220,220)" stroke="rgb(220,220,220)" stroke-width="1" opacity="1" d="M 173.5 299 L 172.5 301 L 173.5 299 Z " /><path fill="rgb(220,220,220)" stroke="rgb(220,220,220)" stroke-width="1" opacity="1" d="M 104.5 300 L 105.5 302 L 104.5 300 Z " /><path fill="rgb(220,220,220)" stroke="rgb(220,220,220)" stroke-width="1" opacity="1" d="M 142.5 311 L 145 311.5 L 142.5 312 L 142.5 311 Z " /><path fill="rgb(220,220,220)" stroke="rgb(220,220,220)" stroke-width="1" opacity="1" d="M 115.5 312 L 130 312.5 L 115.5 313 L 115.5 312 Z " /><path fill="rgb(255,255,255)" stroke="rgb(255,255,255)" stroke-width="1" opacity="1" d="M 0 0 L 416 0 L 416 358 L 0 358 L 0 0 Z M 310 46 L 305 52 L 288 83 Q 280 92 270 98 L 242 109 L 226 109 L 200 100 L 178 97 L 168 94 L 123 64 L 119 62 L 119 68 L 133 84 L 134 85 Q 96 76 66 60 Q 59 58 61 64 Q 69 73 81 79 L 94 85 L 112 90 L 115 89 L 115 91 Q 157 99 194 112 L 194 110 Q 197 109 196 112 L 201 114 L 213 117 L 223 119 L 230 119 L 231 120 L 246 120 L 257 118 L 317 100 L 345 95 L 351 95 L 368 91 L 372 86 L 371 83 L 369 82 L 358 82 L 356 84 L 355 82 L 353 83 L 341 83 L 340 84 L 317 86 L 290 91 L 292 87 Q 298 78 309 75 Q 323 73 335 67 Q 339 65 339 59 L 337 58 L 321 65 L 312 67 L 304 67 L 312 48 Q 313 45 310 46 Z M 277 116 L 274 119 L 274 123 L 277 127 Q 278 133 275 136 L 261 149 Q 247 158 243 176 Q 243 186 248 191 L 256 196 L 265 196 L 283 190 L 310 179 L 334 165 Q 341 160 344 151 L 344 146 L 340 138 Q 333 129 321 126 Q 307 124 300 128 L 290 127 Q 285 124 283 118 Q 282 115 277 116 Z M 199 119 L 196 120 Q 192 124 191 131 L 187 135 L 183 136 L 160 136 L 143 133 L 122 134 L 108 140 L 100 148 L 95 162 Q 94 171 98 176 Q 99 178 101 176 L 100 178 L 115 188 L 118 186 L 119 186 L 118 190 L 173 217 L 193 224 L 213 228 L 224 227 L 230 224 Q 235 220 238 213 L 240 203 Q 239 182 229 171 Q 222 162 213 157 Q 205 151 202 141 L 203 135 L 206 129 L 206 124 Q 204 119 199 119 Z M 345 164 Q 334 175 320 182 L 274 200 L 270 203 L 267 202 L 259 203 Q 265 224 278 239 Q 286 248 298 254 L 304 256 L 326 256 L 333 259 L 338 250 L 351 235 L 356 225 L 357 220 L 357 200 Q 355 198 356 194 L 353 180 L 347 166 L 345 164 Z M 92 184 L 90 186 L 91 191 Q 90 193 89 191 L 86 195 L 77 220 L 72 245 L 72 259 L 75 274 L 82 287 L 100 307 L 102 316 L 111 313 L 145 312 L 154 310 Q 170 306 180 295 L 208 260 L 215 246 L 217 238 L 204 237 L 190 234 L 163 224 L 107 196 L 92 184 Z " /><path fill="rgb(255,255,255)" stroke="rgb(255,255,255)" stroke-width="1" opacity="1" d="M 316.5 132 L 320 133.5 L 316 136.5 Q 317 140.3 314 139 Q 313 135.2 315.5 134 L 317 133.5 L 316.5 132 Z " /><path fill="rgb(255,255,255)" stroke="rgb(255,255,255)" stroke-width="1" opacity="1" d="M 192.5 138 L 193 141 Q 190.3 142.1 191 139.5 L 192.5 138 Z " /><path fill="rgb(255,255,255)" stroke="rgb(255,255,255)" stroke-width="1" opacity="1" d="M 314.5 144 Q 317.5 145.5 314.5 147 Q 311.5 145.5 314.5 144 Z " /><path fill="rgb(255,255,255)" stroke="rgb(255,255,255)" stroke-width="1" opacity="1" d="M 340.5 148 L 342 151 L 335.5 155 L 335 152.5 L 340.5 148 Z " /><path fill="rgb(255,255,255)" stroke="rgb(255,255,255)" stroke-width="1" opacity="1" d="M 104.5 150 L 106 152.5 L 103 153 L 104.5 150 Z " /><path fill="rgb(255,255,255)" stroke="rgb(255,255,255)" stroke-width="1" opacity="1" d="M 300 150 Q 303 149 302 152 Q 299 153 300 150 Z " /><path fill="rgb(255,255,255)" stroke="rgb(255,255,255)" stroke-width="1" opacity="1" d="M 325 164 Q 327.7 162.9 327 165.5 Q 329.3 166.8 326.5 168 L 325 168 L 325 164 Z " /><path fill="rgb(255,255,255)" stroke="rgb(255,255,255)" stroke-width="1" opacity="1" d="M 293.5 167 Q 295.8 166.3 295 168.5 L 293.5 167 Z " /><path fill="rgb(255,255,255)" stroke="rgb(255,255,255)" stroke-width="1" opacity="1" d="M 110.5 168 L 114 169 Q 115.1 171.7 112.5 171 L 111 170.5 Q 111.8 172.8 109.5 172 L 110 170.5 L 110.5 168 Z " /><path fill="rgb(255,255,255)" stroke="rgb(255,255,255)" stroke-width="1" opacity="1" d="M 185 169 L 187 169.5 L 185 170.5 L 185 169 Z " /><path fill="rgb(255,255,255)" stroke="rgb(255,255,255)" stroke-width="1" opacity="1" d="M 129.5 172 Q 132.5 173.5 129.5 175 Q 126.5 173.5 129.5 172 Z " /><path fill="rgb(255,255,255)" stroke="rgb(255,255,255)" stroke-width="1" opacity="1" d="M 186.5 172 Q 189 173.2 188 177 L 185 175.5 L 186.5 172 Z " /><path fill="rgb(255,255,255)" stroke="rgb(255,255,255)" stroke-width="1" opacity="1" d="M 223.5 179 L 224.5 181 Q 221.7 181.7 223.5 179 Z " /><path fill="rgb(255,255,255)" stroke="rgb(255,255,255)" stroke-width="1" opacity="1" d="M 227.5 185 L 228 188.5 L 227 188.5 L 227.5 185 Z " /><path fill="rgb(255,255,255)" stroke="rgb(255,255,255)" stroke-width="1" opacity="1" d="M 226.5 190 L 227 192 L 230 193.5 L 228.5 198 Q 227.3 195.8 226 198.5 L 225.5 200 L 223 195.5 L 224 194.5 L 226.5 190 Z " /><path fill="rgb(255,255,255)" stroke="rgb(255,255,255)" stroke-width="1" opacity="1" d="M 89.5 202 L 91 204.5 L 86 208 L 85.5 210 L 84 206 L 86 206 Q 84.9 203.3 87.5 204 L 89.5 202 Z " /><path fill="rgb(255,255,255)" stroke="rgb(255,255,255)" stroke-width="1" opacity="1" d="M 310 202 Q 313 201 312 204 Q 309 205 310 202 Z " /><path fill="rgb(255,255,255)" stroke="rgb(255,255,255)" stroke-width="1" opacity="1" d="M 116 204 Q 118.7 202.9 118 205.5 L 116 206.5 L 116 204 Z " /><path fill="rgb(255,255,255)" stroke="rgb(255,255,255)" stroke-width="1" opacity="1" d="M 295.5 209 L 296.5 211 L 295.5 209 Z " /><path fill="rgb(255,255,255)" stroke="rgb(255,255,255)" stroke-width="1" opacity="1" d="M 105.5 210 L 108 211.5 L 105.5 213 L 103 211.5 L 105.5 210 Z " /><path fill="rgb(255,255,255)" stroke="rgb(255,255,255)" stroke-width="1" opacity="1" d="M 318.5 210 Q 321.1 209.2 320 212.5 L 319 212.5 L 318.5 210 Z " /><path fill="rgb(255,255,255)" stroke="rgb(255,255,255)" stroke-width="1" opacity="1" d="M 339.5 216 L 341 218.5 Q 339.5 221.5 338 218.5 L 339.5 216 Z " /><path fill="rgb(255,255,255)" stroke="rgb(255,255,255)" stroke-width="1" opacity="1" d="M 101 219 L 104 220.5 L 101 221 L 101 219 Z " /><path fill="rgb(255,255,255)" stroke="rgb(255,255,255)" stroke-width="1" opacity="1" d="M 305.5 243 L 307 246 L 305 245.5 L 305.5 243 Z " /><path fill="rgb(255,255,255)" stroke="rgb(255,255,255)" stroke-width="1" opacity="1" d="M 111 270 Q 114.3 268.9 113 273 Q 109.7 274.1 111 270 Z " /><path fill="rgb(255,255,255)" stroke="rgb(255,255,255)" stroke-width="1" opacity="1" d="M 88.5 271 L 90 274 L 87 272.5 L 88.5 271 Z " /><path fill="rgb(255,255,255)" stroke="rgb(255,255,255)" stroke-width="1" opacity="1" d="M 105.5 300 L 106.5 302 L 105.5 300 Z " /><path fill="rgb(115,115,115)" stroke="rgb(115,115,115)" stroke-width="1" opacity="1" d="M 309.5 47 Q 311.8 46.3 311 48.5 L 303 68 L 318.5 66 L 334.5 59 L 338 59 Q 339 64.6 334.5 66 L 326.5 70 L 307.5 75 Q 297.2 78.7 291 86.5 L 289 92 L 326.5 85 L 354.5 83 L 356.5 84 L 365.5 82 L 371 84 L 370 89 L 366.5 91 L 356 93 L 355.5 91 L 353.5 94 L 318.5 99 L 258.5 117 L 248.5 119 L 228.5 119 L 227.5 118 L 219.5 118 Q 216.6 115.4 210.5 116 L 196 111.5 Q 198.3 110.2 195.5 109 L 192.5 111 L 157.5 100 L 126 93 L 126 89 L 127.5 89 L 127.5 88 L 124 88 L 124 92 L 122.5 92 L 116 89.5 Q 116.7 86.9 114 88 L 113.5 90 L 87.5 82 L 73.5 74 L 62 65 L 61 61.5 L 64.5 60 L 97.5 75 L 133.5 86 L 134 83.5 L 120 68.5 L 119 62.5 L 121.5 64 L 168.5 95 L 179.5 98 L 185.5 98 L 200.5 101 L 222.5 109 L 238.5 110 Q 255.2 106.2 268.5 99 Q 279.4 93.4 287 84.5 L 294 74.5 L 305 52.5 L 309.5 47 Z M 139 89 L 138 93 L 139 93 L 139 89 Z M 129 90 L 129 91 L 131 91 L 129 90 Z M 189 105 L 188 107 L 190 108 L 189 105 Z " /><path fill="rgb(115,115,115)" stroke="rgb(115,115,115)" stroke-width="1" opacity="1" d="M 277.5 116 Q 282.3 115.3 283 118.5 Q 284.3 124.3 288.5 127 L 290.5 128 L 302.5 128 L 309.5 126 L 317.5 126 Q 333.1 128.9 341 139.5 Q 344.5 143.5 343 152.5 Q 339.7 160.7 332.5 165 L 328 167 L 325.5 163 L 324 167.5 L 327 168.5 L 310.5 178 L 286.5 188 L 269.5 194 L 257.5 196 Q 250.3 194.2 247 188.5 Q 242.3 183.7 244 172.5 Q 249.7 156.7 262.5 148 L 275 136.5 Q 278 133.5 278 127.5 L 274 121.5 L 277.5 116 Z M 316 132 L 316 134 L 314 134 L 314 139 L 316 139 L 317 135 L 321 134 Q 322 131 316 132 Z M 323 134 L 323 138 L 324 138 L 323 134 Z M 323 142 L 323 145 L 325 144 Q 326 141 323 142 Z M 314 144 L 312 146 L 316 147 Q 318 143 314 144 Z M 335 146 Q 334 149 337 148 Q 338 145 335 146 Z M 341 147 L 335 152 Q 333 158 338 156 L 342 151 L 341 147 Z M 300 149 L 300 153 L 302 152 Q 303 148 300 149 Z M 293 166 Q 292 170 295 169 Q 296 165 293 166 Z " /><path fill="rgb(115,115,115)" stroke="rgb(115,115,115)" stroke-width="1" opacity="1" d="M 196.5 120 L 201.5 120 L 205 122 L 206 126.5 L 202 135.5 L 202 142.5 L 208 155 Q 220.9 161.4 230 172.5 L 237 185.5 L 239 194.5 L 239 206.5 Q 236.8 218.3 228.5 224 Q 221.9 228.9 208.5 227 Q 188.1 223.4 171.5 216 L 124.5 193 L 118 188.5 L 119 185 Q 114.9 183.3 116 187.5 L 113.5 186 L 101 177.5 Q 101.8 175.3 99.5 176 Q 93.7 171.3 96 158.5 Q 99.3 146.3 108.5 140 Q 115 135.5 124.5 134 L 146.5 134 L 155 135.5 L 154.5 137 L 163.5 136 L 164.5 137 L 180.5 137 L 187.5 135 L 191 131.5 Q 191.9 123.9 196.5 120 Z M 192 136 Q 190 141 193 142 L 194 140 L 192 136 Z M 167 144 L 167 146 L 169 145 L 167 144 Z M 197 144 L 196 147 L 197 147 L 197 144 Z M 192 146 Q 190 149 193 148 L 192 146 Z M 104 148 L 102 152 Q 101 154 104 153 Q 105 155 106 153 Q 108 147 104 148 Z M 202 156 L 203 158 L 204 158 L 202 156 Z M 208 159 L 206 162 L 208 162 L 208 159 Z M 137 166 L 138 169 L 139 167 L 137 166 Z M 110 167 L 109 172 L 112 171 Q 116 172 114 168 L 112 169 L 112 168 L 110 167 Z M 206 167 L 205 170 L 206 170 L 206 167 Z M 125 168 L 123 170 L 126 172 Q 127 167 125 168 Z M 187 168 L 185 170 L 185 178 L 189 177 L 187 168 Z M 130 171 L 128 174 L 131 175 L 130 171 Z M 226 174 L 226 176 L 228 175 L 226 174 Z M 171 176 L 170 179 L 171 179 L 171 176 Z M 167 179 L 166 181 L 168 180 L 167 179 Z M 223 179 L 224 183 L 225 181 Q 226 178 223 179 Z M 229 182 L 227 184 L 230 184 Q 231 181 229 182 Z M 228 185 L 227 186 Q 223 185 224 188 L 226 188 L 226 191 L 223 195 L 223 196 L 224 196 L 224 200 L 226 200 Q 227 196 229 199 Q 231 197 230 192 L 227 191 L 228 189 L 228 185 Z " /><path fill="rgb(115,115,115)" stroke="rgb(115,115,115)" stroke-width="1" opacity="1" d="M 345.5 164 Q 354.2 176.3 355 196.5 L 354.5 198 Q 357.9 197.1 356 202.5 L 357 203.5 L 357 216.5 L 355 225.5 L 351 233.5 L 335 252.5 L 332.5 259 L 330.5 257 L 321.5 255 L 320.5 256 L 306.5 256 Q 286.9 251.1 277 236.5 Q 266 222.5 259 204.5 Q 261.1 202.1 266.5 203 L 268.5 204 L 271 203 Q 269.8 200 273.5 201 L 320.5 182 Q 334.8 174.8 345.5 164 Z M 351 196 L 349 198 L 350 201 L 353 201 L 351 200 L 351 196 Z M 311 201 Q 308 202 310 204 Q 309 206 312 205 L 312 201 L 311 201 Z M 294 209 Q 293 212 296 211 L 297 212 Q 298 207 294 209 Z M 318 209 L 318 212 L 321 213 L 320 211 Q 321 208 318 209 Z M 338 216 Q 337 220 340 221 L 341 218 L 338 216 Z M 299 221 Q 298 224 301 223 Q 302 220 299 221 Z M 342 222 L 338 224 L 343 224 L 342 222 Z M 290 229 L 292 231 Q 293 228 290 229 Z M 341 238 L 339 241 L 341 241 L 341 238 Z M 305 243 Q 304 247 307 246 Q 308 242 305 243 Z M 296 244 L 297 245 Q 298 247 299 245 L 296 244 Z M 301 245 L 299 247 L 301 248 L 301 245 Z M 302 249 L 300 252 L 302 252 L 302 249 Z " /><path fill="rgb(115,115,115)" stroke="rgb(115,115,115)" stroke-width="1" opacity="1" d="M 91.5 184 L 105.5 196 L 142.5 215 L 165.5 226 L 191 234.5 L 189 243.5 L 191 244.5 Q 190 239.5 193 238.5 L 192 235 L 216 239 Q 214.1 249.2 208.5 257 L 207 256.5 L 207 259.5 L 195 276.5 L 175.5 298 Q 166.3 306.3 152.5 310 L 140.5 311 L 139.5 312 L 113.5 312 L 108.5 313 L 103.5 316 L 100 305.5 L 91 295.5 L 90.5 292 L 88.5 293 Q 78.4 283.6 74 268.5 L 73 263.5 L 73 240.5 L 78 218.5 L 84.5 202 L 86 201.5 L 85 198.5 L 87 193 L 91 192 L 90 186.5 L 91.5 184 Z M 90 201 Q 90 204 88 203 Q 83 204 84 210 Q 88 211 87 209 L 91 206 Q 92 202 90 201 Z M 97 203 Q 96 206 99 205 Q 100 202 97 203 Z M 107 203 L 108 204 L 109 205 Q 110 202 107 203 Z M 116 203 L 116 207 L 118 207 Q 120 206 118 205 Q 119 202 116 203 Z M 105 210 L 102 212 Q 103 214 108 213 Q 110 209 105 210 Z M 102 218 L 100 221 L 103 222 Q 105 223 104 220 L 102 218 Z M 86 219 Q 83 223 87 222 L 86 219 Z M 195 237 L 197 239 Q 198 236 195 237 Z M 107 242 Q 106 245 109 244 Q 110 241 107 242 Z M 194 247 L 194 251 L 195 251 L 194 247 Z M 110 248 L 108 250 L 111 250 Q 112 247 110 248 Z M 98 251 L 99 255 L 103 256 L 102 254 Q 99 255 100 251 L 98 251 Z M 103 251 L 103 253 L 105 252 L 103 251 Z M 200 254 Q 199 257 202 256 Q 203 253 200 254 Z M 113 269 L 110 272 L 113 273 L 113 269 Z M 89 270 L 87 274 L 91 275 L 89 270 Z M 90 277 L 90 278 L 92 278 L 90 277 Z M 111 287 L 112 289 L 113 289 L 111 287 Z M 104 300 Q 103 303 107 302 Q 108 299 104 300 Z M 155 304 L 155 305 L 158 305 L 155 304 Z " /><path fill="rgb(185,185,185)" stroke="rgb(185,185,185)" stroke-width="1" opacity="1" d="M 310.5 46 Q 312.8 45.3 312 47.5 L 310.5 46 Z " /><path fill="rgb(185,185,185)" stroke="rgb(185,185,185)" stroke-width="1" opacity="1" d="M 308.5 47 L 307.5 49 L 308.5 47 Z " /><path fill="rgb(185,185,185)" stroke="rgb(185,185,185)" stroke-width="1" opacity="1" d="M 306.5 50 L 305.5 52 L 306.5 50 Z " /><path fill="rgb(185,185,185)" stroke="rgb(185,185,185)" stroke-width="1" opacity="1" d="M 301.5 59 L 301 60.5 L 298.5 65 L 299 63.5 L 301.5 59 Z " /><path fill="rgb(185,185,185)" stroke="rgb(185,185,185)" stroke-width="1" opacity="1" d="M 67.5 61 L 71 62.5 L 69.5 63 L 67.5 61 Z " /><path fill="rgb(185,185,185)" stroke="rgb(185,185,185)" stroke-width="1" opacity="1" d="M 120.5 62 L 121.5 64 L 120.5 62 Z " /><path fill="rgb(185,185,185)" stroke="rgb(185,185,185)" stroke-width="1" opacity="1" d="M 337.5 63 L 335.5 66 L 337.5 63 Z " /><path fill="rgb(185,185,185)" stroke="rgb(185,185,185)" stroke-width="1" opacity="1" d="M 123.5 64 L 124.5 66 L 123.5 64 Z " /><path fill="rgb(185,185,185)" stroke="rgb(185,185,185)" stroke-width="1" opacity="1" d="M 63.5 65 L 66.5 69 L 63.5 65 Z " /><path fill="rgb(185,185,185)" stroke="rgb(185,185,185)" stroke-width="1" opacity="1" d="M 126.5 66 L 127.5 68 L 126.5 66 Z " /><path fill="rgb(185,185,185)" stroke="rgb(185,185,185)" stroke-width="1" opacity="1" d="M 303.5 66 L 307 67.5 L 304.5 68 L 303.5 66 Z " /><path fill="rgb(185,185,185)" stroke="rgb(185,185,185)" stroke-width="1" opacity="1" d="M 70.5 71 L 71.5 73 L 70.5 71 Z " /><path fill="rgb(185,185,185)" stroke="rgb(185,185,185)" stroke-width="1" opacity="1" d="M 122.5 71 L 132.5 82 L 122.5 71 Z " /><path fill="rgb(185,185,185)" stroke="rgb(185,185,185)" stroke-width="1" opacity="1" d="M 133.5 71 L 134.5 73 L 133.5 71 Z " /><path fill="rgb(185,185,185)" stroke="rgb(185,185,185)" stroke-width="1" opacity="1" d="M 136.5 73 L 137.5 75 L 136.5 73 Z " /><path fill="rgb(185,185,185)" stroke="rgb(185,185,185)" stroke-width="1" opacity="1" d="M 74.5 74 L 75.5 76 L 74.5 74 Z " /><path fill="rgb(185,185,185)" stroke="rgb(185,185,185)" stroke-width="1" opacity="1" d="M 293.5 74 L 292.5 76 L 293.5 74 Z " /><path fill="rgb(185,185,185)" stroke="rgb(185,185,185)" stroke-width="1" opacity="1" d="M 139.5 75 L 140.5 77 L 139.5 75 Z " /><path fill="rgb(185,185,185)" stroke="rgb(185,185,185)" stroke-width="1" opacity="1" d="M 79.5 77 L 80.5 79 L 79.5 77 Z " /><path fill="rgb(185,185,185)" stroke="rgb(185,185,185)" stroke-width="1" opacity="1" d="M 291.5 77 L 290.5 79 L 291.5 77 Z " /><path fill="rgb(185,185,185)" stroke="rgb(185,185,185)" stroke-width="1" opacity="1" d="M 143.5 78 L 144.5 80 L 143.5 78 Z " /><path fill="rgb(185,185,185)" stroke="rgb(185,185,185)" stroke-width="1" opacity="1" d="M 146.5 80 L 147.5 82 L 146.5 80 Z " /><path fill="rgb(185,185,185)" stroke="rgb(185,185,185)" stroke-width="1" opacity="1" d="M 289.5 80 L 288.5 82 L 289.5 80 Z " /><path fill="rgb(185,185,185)" stroke="rgb(185,185,185)" stroke-width="1" opacity="1" d="M 296.5 81 L 295.5 83 L 296.5 81 Z " /><path fill="rgb(185,185,185)" stroke="rgb(185,185,185)" stroke-width="1" opacity="1" d="M 149.5 82 L 150.5 84 L 149.5 82 Z " /><path fill="rgb(185,185,185)" stroke="rgb(185,185,185)" stroke-width="1" opacity="1" d="M 358.5 82 L 363 82.5 L 358.5 83 L 358.5 82 Z " /><path fill="rgb(185,185,185)" stroke="rgb(185,185,185)" stroke-width="1" opacity="1" d="M 152.5 84 L 153.5 86 L 152.5 84 Z " /><path fill="rgb(185,185,185)" stroke="rgb(185,185,185)" stroke-width="1" opacity="1" d="M 286.5 84 L 280.5 91 L 286.5 84 Z " /><path fill="rgb(185,185,185)" stroke="rgb(185,185,185)" stroke-width="1" opacity="1" d="M 293.5 84 L 291.5 87 L 293.5 84 Z " /><path fill="rgb(185,185,185)" stroke="rgb(185,185,185)" stroke-width="1" opacity="1" d="M 114.5 88 Q 116.8 87.3 116 89.5 L 116.5 91 L 114.5 88 Z " /><path fill="rgb(185,185,185)" stroke="rgb(185,185,185)" stroke-width="1" opacity="1" d="M 158.5 88 L 159.5 90 L 158.5 88 Z " /><path fill="rgb(185,185,185)" stroke="rgb(185,185,185)" stroke-width="1" opacity="1" d="M 124 89 Q 127.7 87.8 126 93 Q 122.3 94.2 124 89 Z " /><path fill="rgb(185,185,185)" stroke="rgb(185,185,185)" stroke-width="1" opacity="1" d="M 161.5 90 L 165 92.5 L 163.5 92 L 161.5 90 Z " /><path fill="rgb(185,185,185)" stroke="rgb(185,185,185)" stroke-width="1" opacity="1" d="M 355.5 91 L 356 92.5 L 354 93.5 L 355.5 91 Z " /><path fill="rgb(185,185,185)" stroke="rgb(185,185,185)" stroke-width="1" opacity="1" d="M 140.5 96 L 143 96.5 L 140.5 97 L 140.5 96 Z " /><path fill="rgb(185,185,185)" stroke="rgb(185,185,185)" stroke-width="1" opacity="1" d="M 186.5 98 L 189 98.5 L 186.5 99 L 186.5 98 Z " /><path fill="rgb(185,185,185)" stroke="rgb(185,185,185)" stroke-width="1" opacity="1" d="M 188.5 106 L 189.5 108 L 188.5 106 Z " /><path fill="rgb(185,185,185)" stroke="rgb(185,185,185)" stroke-width="1" opacity="1" d="M 195.5 109 L 196.5 111 L 195.5 109 Z " /><path fill="rgb(185,185,185)" stroke="rgb(185,185,185)" stroke-width="1" opacity="1" d="M 223.5 118 L 227 118.5 L 223.5 119 L 223.5 118 Z " /><path fill="rgb(185,185,185)" stroke="rgb(185,185,185)" stroke-width="1" opacity="1" d="M 234.5 119 L 244 119.5 L 234.5 120 L 234.5 119 Z " /><path fill="rgb(185,185,185)" stroke="rgb(185,185,185)" stroke-width="1" opacity="1" d="M 202.5 120 L 203.5 122 L 202.5 120 Z " /><path fill="rgb(185,185,185)" stroke="rgb(185,185,185)" stroke-width="1" opacity="1" d="M 285.5 123 L 288.5 127 L 285.5 123 Z " /><path fill="rgb(185,185,185)" stroke="rgb(185,185,185)" stroke-width="1" opacity="1" d="M 190.5 131 L 187.5 135 L 190.5 131 Z " /><path fill="rgb(185,185,185)" stroke="rgb(185,185,185)" stroke-width="1" opacity="1" d="M 332.5 131 L 333.5 133 L 332.5 131 Z " /><path fill="rgb(185,185,185)" stroke="rgb(185,185,185)" stroke-width="1" opacity="1" d="M 315.5 132 L 316.5 134 L 315.5 132 Z " /><path fill="rgb(185,185,185)" stroke="rgb(185,185,185)" stroke-width="1" opacity="1" d="M 320.5 132 L 321 133.5 L 319 134.5 L 320.5 132 Z " /><path fill="rgb(185,185,185)" stroke="rgb(185,185,185)" stroke-width="1" opacity="1" d="M 130.5 133 L 141 133.5 L 130.5 134 L 130.5 133 Z " /><path fill="rgb(185,185,185)" stroke="rgb(185,185,185)" stroke-width="1" opacity="1" d="M 335.5 133 L 336.5 135 L 335.5 133 Z " /><path fill="rgb(185,185,185)" stroke="rgb(185,185,185)" stroke-width="1" opacity="1" d="M 147.5 134 L 150 134.5 L 147.5 135 L 147.5 134 Z " /><path fill="rgb(185,185,185)" stroke="rgb(185,185,185)" stroke-width="1" opacity="1" d="M 322.5 134 L 323.5 136 L 322.5 134 Z " /><path fill="rgb(185,185,185)" stroke="rgb(185,185,185)" stroke-width="1" opacity="1" d="M 155.5 135 L 158 135.5 L 154.5 137 L 155.5 135 Z " /><path fill="rgb(185,185,185)" stroke="rgb(185,185,185)" stroke-width="1" opacity="1" d="M 164.5 136 L 167 136.5 L 164.5 137 L 164.5 136 Z " /><path fill="rgb(185,185,185)" stroke="rgb(185,185,185)" stroke-width="1" opacity="1" d="M 274.5 136 L 272.5 139 L 274.5 136 Z " /><path fill="rgb(185,185,185)" stroke="rgb(185,185,185)" stroke-width="1" opacity="1" d="M 106.5 141 L 101.5 147 L 106.5 141 Z " /><path fill="rgb(185,185,185)" stroke="rgb(185,185,185)" stroke-width="1" opacity="1" d="M 323.5 142 L 324.5 144 L 323.5 142 Z " /><path fill="rgb(185,185,185)" stroke="rgb(185,185,185)" stroke-width="1" opacity="1" d="M 167 144 L 169 144.5 L 167 145.5 L 167 144 Z " /><path fill="rgb(185,185,185)" stroke="rgb(185,185,185)" stroke-width="1" opacity="1" d="M 265.5 145 L 263.5 148 L 265.5 145 Z " /><path fill="rgb(185,185,185)" stroke="rgb(185,185,185)" stroke-width="1" opacity="1" d="M 191.5 146 L 192.5 148 Q 189.7 148.7 191.5 146 Z " /><path fill="rgb(185,185,185)" stroke="rgb(185,185,185)" stroke-width="1" opacity="1" d="M 336.5 146 L 337 148 L 335 147.5 L 336.5 146 Z " /><path fill="rgb(185,185,185)" stroke="rgb(185,185,185)" stroke-width="1" opacity="1" d="M 343.5 147 L 344 150.5 L 343 150.5 L 343.5 147 Z " /><path fill="rgb(185,185,185)" stroke="rgb(185,185,185)" stroke-width="1" opacity="1" d="M 100.5 148 L 99.5 150 L 100.5 148 Z " /><path fill="rgb(185,185,185)" stroke="rgb(185,185,185)" stroke-width="1" opacity="1" d="M 104 148 Q 107 146.8 106 150.5 L 104 149.5 L 104 148 Z " /><path fill="rgb(185,185,185)" stroke="rgb(185,185,185)" stroke-width="1" opacity="1" d="M 338.5 148 L 336.5 151 L 338.5 148 Z " /><path fill="rgb(185,185,185)" stroke="rgb(185,185,185)" stroke-width="1" opacity="1" d="M 189.5 150 L 190.5 152 L 189.5 150 Z " /><path fill="rgb(185,185,185)" stroke="rgb(185,185,185)" stroke-width="1" opacity="1" d="M 257.5 152 L 251.5 159 L 257.5 152 Z " /><path fill="rgb(185,185,185)" stroke="rgb(185,185,185)" stroke-width="1" opacity="1" d="M 338.5 153 L 338 154.5 Q 338.8 157.1 335.5 156 L 335.5 155 L 338.5 153 Z " /><path fill="rgb(185,185,185)" stroke="rgb(185,185,185)" stroke-width="1" opacity="1" d="M 208.5 154 L 211 155.5 L 209.5 155 L 208.5 154 Z " /><path fill="rgb(185,185,185)" stroke="rgb(185,185,185)" stroke-width="1" opacity="1" d="M 213.5 157 L 215.5 160 L 213.5 157 Z " /><path fill="rgb(185,185,185)" stroke="rgb(185,185,185)" stroke-width="1" opacity="1" d="M 340.5 157 L 334.5 164 L 340.5 157 Z " /><path fill="rgb(185,185,185)" stroke="rgb(185,185,185)" stroke-width="1" opacity="1" d="M 217.5 160 L 219.5 163 L 217.5 160 Z " /><path fill="rgb(185,185,185)" stroke="rgb(185,185,185)" stroke-width="1" opacity="1" d="M 249.5 161 L 248.5 163 L 249.5 161 Z " /><path fill="rgb(185,185,185)" stroke="rgb(185,185,185)" stroke-width="1" opacity="1" d="M 95.5 163 L 96 165.5 L 95 165.5 L 95.5 163 Z " /><path fill="rgb(185,185,185)" stroke="rgb(185,185,185)" stroke-width="1" opacity="1" d="M 222.5 164 L 226.5 169 L 222.5 164 Z " /><path fill="rgb(185,185,185)" stroke="rgb(185,185,185)" stroke-width="1" opacity="1" d="M 344.5 164 L 340.5 169 L 344.5 164 Z " /><path fill="rgb(185,185,185)" stroke="rgb(185,185,185)" stroke-width="1" opacity="1" d="M 111.5 167 L 114 168.5 L 112.5 169 L 111.5 167 Z " /><path fill="rgb(185,185,185)" stroke="rgb(185,185,185)" stroke-width="1" opacity="1" d="M 205.5 167 L 206 169.5 L 205 169.5 L 205.5 167 Z " /><path fill="rgb(185,185,185)" stroke="rgb(185,185,185)" stroke-width="1" opacity="1" d="M 324.5 167 L 325.5 169 L 324.5 167 Z " /><path fill="rgb(185,185,185)" stroke="rgb(185,185,185)" stroke-width="1" opacity="1" d="M 124.5 170 L 125.5 172 L 124.5 170 Z " /><path fill="rgb(185,185,185)" stroke="rgb(185,185,185)" stroke-width="1" opacity="1" d="M 129.5 171 L 130.5 173 L 129.5 171 Z " /><path fill="rgb(185,185,185)" stroke="rgb(185,185,185)" stroke-width="1" opacity="1" d="M 188.5 174 L 189 176.5 L 188 176.5 L 188.5 174 Z " /><path fill="rgb(185,185,185)" stroke="rgb(185,185,185)" stroke-width="1" opacity="1" d="M 101.5 178 L 102.5 180 L 101.5 178 Z " /><path fill="rgb(185,185,185)" stroke="rgb(185,185,185)" stroke-width="1" opacity="1" d="M 166.5 179 L 168 179.5 L 165.5 181 L 166.5 179 Z " /><path fill="rgb(185,185,185)" stroke="rgb(185,185,185)" stroke-width="1" opacity="1" d="M 105.5 181 L 106.5 183 L 105.5 181 Z " /><path fill="rgb(185,185,185)" stroke="rgb(185,185,185)" stroke-width="1" opacity="1" d="M 228.5 182 L 227.5 184 L 228.5 182 Z " /><path fill="rgb(185,185,185)" stroke="rgb(185,185,185)" stroke-width="1" opacity="1" d="M 110.5 184 L 111.5 186 L 110.5 184 Z " /><path fill="rgb(185,185,185)" stroke="rgb(185,185,185)" stroke-width="1" opacity="1" d="M 113.5 186 L 114.5 188 L 113.5 186 Z " /><path fill="rgb(185,185,185)" stroke="rgb(185,185,185)" stroke-width="1" opacity="1" d="M 95.5 187 L 97.5 190 L 95.5 187 Z " /><path fill="rgb(185,185,185)" stroke="rgb(185,185,185)" stroke-width="1" opacity="1" d="M 226.5 187 L 227 189.5 L 226 189.5 L 226.5 187 Z " /><path fill="rgb(185,185,185)" stroke="rgb(185,185,185)" stroke-width="1" opacity="1" d="M 100.5 191 L 101.5 193 L 100.5 191 Z " /><path fill="rgb(185,185,185)" stroke="rgb(185,185,185)" stroke-width="1" opacity="1" d="M 122.5 191 L 123.5 193 L 122.5 191 Z " /><path fill="rgb(185,185,185)" stroke="rgb(185,185,185)" stroke-width="1" opacity="1" d="M 249.5 191 L 251.5 194 L 249.5 191 Z " /><path fill="rgb(185,185,185)" stroke="rgb(185,185,185)" stroke-width="1" opacity="1" d="M 104.5 194 L 105.5 196 L 104.5 194 Z " /><path fill="rgb(185,185,185)" stroke="rgb(185,185,185)" stroke-width="1" opacity="1" d="M 349.5 198 L 351 200.5 L 350 200.5 L 349.5 198 Z " /><path fill="rgb(185,185,185)" stroke="rgb(185,185,185)" stroke-width="1" opacity="1" d="M 310.5 201 L 312 201.5 L 309.5 203 L 310.5 201 Z " /><path fill="rgb(185,185,185)" stroke="rgb(185,185,185)" stroke-width="1" opacity="1" d="M 102.5 211 L 103.5 213 L 102.5 211 Z " /><path fill="rgb(185,185,185)" stroke="rgb(185,185,185)" stroke-width="1" opacity="1" d="M 163.5 212 L 167 213.5 L 165.5 214 L 163.5 212 Z " /><path fill="rgb(185,185,185)" stroke="rgb(185,185,185)" stroke-width="1" opacity="1" d="M 141.5 213 L 156 220.5 L 154.5 221 L 142.5 215 L 141.5 213 Z " /><path fill="rgb(185,185,185)" stroke="rgb(185,185,185)" stroke-width="1" opacity="1" d="M 235.5 216 L 234.5 218 L 235.5 216 Z " /><path fill="rgb(185,185,185)" stroke="rgb(185,185,185)" stroke-width="1" opacity="1" d="M 101.5 218 L 103 218.5 L 101 219 L 100.5 221 L 100 219.5 L 101.5 218 Z " /><path fill="rgb(185,185,185)" stroke="rgb(185,185,185)" stroke-width="1" opacity="1" d="M 77.5 219 L 78 221.5 L 77 221.5 L 77.5 219 Z " /><path fill="rgb(185,185,185)" stroke="rgb(185,185,185)" stroke-width="1" opacity="1" d="M 85.5 219 L 87 221.5 L 86 221.5 L 85.5 219 Z " /><path fill="rgb(185,185,185)" stroke="rgb(185,185,185)" stroke-width="1" opacity="1" d="M 233.5 219 L 230.5 223 L 233.5 219 Z " /><path fill="rgb(185,185,185)" stroke="rgb(185,185,185)" stroke-width="1" opacity="1" d="M 338.5 219 L 339.5 221 L 338.5 219 Z " /><path fill="rgb(185,185,185)" stroke="rgb(185,185,185)" stroke-width="1" opacity="1" d="M 341.5 222 L 342.5 224 L 341.5 222 Z " /><path fill="rgb(185,185,185)" stroke="rgb(185,185,185)" stroke-width="1" opacity="1" d="M 205.5 226 L 208 226.5 L 205.5 227 L 205.5 226 Z " /><path fill="rgb(185,185,185)" stroke="rgb(185,185,185)" stroke-width="1" opacity="1" d="M 289.5 229 L 292 229.5 Q 292.8 231.8 290.5 231 L 289.5 229 Z " /><path fill="rgb(185,185,185)" stroke="rgb(185,185,185)" stroke-width="1" opacity="1" d="M 350.5 234 L 348.5 237 L 350.5 234 Z " /><path fill="rgb(185,185,185)" stroke="rgb(185,185,185)" stroke-width="1" opacity="1" d="M 190.5 235 L 191.5 239 L 193 238.5 L 190 240 L 190.5 235 Z " /><path fill="rgb(185,185,185)" stroke="rgb(185,185,185)" stroke-width="1" opacity="1" d="M 73.5 237 L 74 239.5 L 73 239.5 L 73.5 237 Z " /><path fill="rgb(185,185,185)" stroke="rgb(185,185,185)" stroke-width="1" opacity="1" d="M 206.5 237 L 209 237.5 L 206.5 238 L 206.5 237 Z " /><path fill="rgb(185,185,185)" stroke="rgb(185,185,185)" stroke-width="1" opacity="1" d="M 340.5 238 L 341 239.5 L 339 240.5 L 340.5 238 Z " /><path fill="rgb(185,185,185)" stroke="rgb(185,185,185)" stroke-width="1" opacity="1" d="M 347.5 238 L 345.5 241 L 347.5 238 Z " /><path fill="rgb(185,185,185)" stroke="rgb(185,185,185)" stroke-width="1" opacity="1" d="M 280.5 240 L 285.5 246 L 280.5 240 Z " /><path fill="rgb(185,185,185)" stroke="rgb(185,185,185)" stroke-width="1" opacity="1" d="M 189.5 243 L 190.5 245 L 189.5 243 Z " /><path fill="rgb(185,185,185)" stroke="rgb(185,185,185)" stroke-width="1" opacity="1" d="M 343.5 243 L 340.5 247 L 343.5 243 Z " /><path fill="rgb(185,185,185)" stroke="rgb(185,185,185)" stroke-width="1" opacity="1" d="M 300.5 245 L 301 247 L 299 246.5 L 300.5 245 Z " /><path fill="rgb(185,185,185)" stroke="rgb(185,185,185)" stroke-width="1" opacity="1" d="M 193.5 247 L 195 250.5 L 194 250.5 L 193.5 247 Z " /><path fill="rgb(185,185,185)" stroke="rgb(185,185,185)" stroke-width="1" opacity="1" d="M 72.5 248 L 73 254.5 L 72 254.5 L 72.5 248 Z " /><path fill="rgb(185,185,185)" stroke="rgb(185,185,185)" stroke-width="1" opacity="1" d="M 289.5 248 L 290.5 250 L 289.5 248 Z " /><path fill="rgb(185,185,185)" stroke="rgb(185,185,185)" stroke-width="1" opacity="1" d="M 293.5 249 L 295 249.5 L 292.5 251 L 293.5 249 Z " /><path fill="rgb(185,185,185)" stroke="rgb(185,185,185)" stroke-width="1" opacity="1" d="M 98.5 251 L 100.5 255 Q 101.8 252.8 103 255.5 L 100.5 256 Q 96.8 254.2 98.5 251 Z " /><path fill="rgb(185,185,185)" stroke="rgb(185,185,185)" stroke-width="1" opacity="1" d="M 294.5 251 L 297 252.5 L 295.5 253 L 294.5 251 Z " /><path fill="rgb(185,185,185)" stroke="rgb(185,185,185)" stroke-width="1" opacity="1" d="M 336.5 251 L 335.5 253 L 336.5 251 Z " /><path fill="rgb(185,185,185)" stroke="rgb(185,185,185)" stroke-width="1" opacity="1" d="M 207.5 256 L 208.5 258 Q 205.7 258.7 207.5 256 Z " /><path fill="rgb(185,185,185)" stroke="rgb(185,185,185)" stroke-width="1" opacity="1" d="M 329.5 257 L 332 258.5 L 330.5 258 L 329.5 257 Z " /><path fill="rgb(185,185,185)" stroke="rgb(185,185,185)" stroke-width="1" opacity="1" d="M 204.5 260 L 207 260.5 Q 204.9 263.8 204.5 260 Z " /><path fill="rgb(185,185,185)" stroke="rgb(185,185,185)" stroke-width="1" opacity="1" d="M 202.5 263 L 205 263.5 Q 202.9 266.8 202.5 263 Z " /><path fill="rgb(185,185,185)" stroke="rgb(185,185,185)" stroke-width="1" opacity="1" d="M 202.5 266 L 201.5 268 L 202.5 266 Z " /><path fill="rgb(185,185,185)" stroke="rgb(185,185,185)" stroke-width="1" opacity="1" d="M 88.5 270 L 87.5 272 L 88.5 270 Z " /><path fill="rgb(185,185,185)" stroke="rgb(185,185,185)" stroke-width="1" opacity="1" d="M 199.5 270 L 198.5 272 L 199.5 270 Z " /><path fill="rgb(185,185,185)" stroke="rgb(185,185,185)" stroke-width="1" opacity="1" d="M 90.5 273 L 91 275 L 88 274.5 L 90.5 273 Z " /><path fill="rgb(185,185,185)" stroke="rgb(185,185,185)" stroke-width="1" opacity="1" d="M 196.5 274 L 195.5 276 L 196.5 274 Z " /><path fill="rgb(185,185,185)" stroke="rgb(185,185,185)" stroke-width="1" opacity="1" d="M 192.5 279 L 191.5 281 L 192.5 279 Z " /><path fill="rgb(185,185,185)" stroke="rgb(185,185,185)" stroke-width="1" opacity="1" d="M 188.5 284 L 185.5 288 L 188.5 284 Z " /><path fill="rgb(185,185,185)" stroke="rgb(185,185,185)" stroke-width="1" opacity="1" d="M 83.5 287 L 85.5 290 L 83.5 287 Z " /><path fill="rgb(185,185,185)" stroke="rgb(185,185,185)" stroke-width="1" opacity="1" d="M 90.5 292 L 91 294.5 L 90 294.5 L 90.5 292 Z " /><path fill="rgb(185,185,185)" stroke="rgb(185,185,185)" stroke-width="1" opacity="1" d="M 115.5 294 L 116.5 296 L 115.5 294 Z " /><path fill="rgb(185,185,185)" stroke="rgb(185,185,185)" stroke-width="1" opacity="1" d="M 96.5 301 L 97.5 303 L 96.5 301 Z " /></svg>